<svg xmlns="http://www.w3.org/2000/svg" width="120" height="120" viewBox="0 0 120 120">
  <g id="Grupo_136763" data-name="Grupo 136763" transform="translate(-1108 -4632)">
    <g id="Grupo_136728" data-name="Grupo 136728" transform="translate(-70 3731)">
      <circle id="Elipse_5412" data-name="Elipse 5412" cx="60" cy="60" r="60" transform="translate(1178 901)" fill="#b13e8d"/>
    </g>
    <g id="Layer_2" data-name="Layer 2" transform="translate(1132 4656)">
      <g id="_1" data-name="1">
        <path id="Trazado_194613" data-name="Trazado 194613" d="M6,32a6,6,0,1,1,6-6,6,6,0,0,1-6,6Zm0-9a3,3,0,1,0,3,3A3,3,0,0,0,6,23Z" transform="translate(0 10.002)" fill="#fff"/>
        <path id="Trazado_194614" data-name="Trazado 194614" d="M12,46a6,6,0,1,1,6-6A6,6,0,0,1,12,46Zm0-9a3,3,0,1,0,3,3A3,3,0,0,0,12,37Z" transform="translate(3 17.003)" fill="#fff"/>
        <path id="Trazado_194615" data-name="Trazado 194615" d="M12,18a6,6,0,1,1,6-6A6,6,0,0,1,12,18Zm0-9a3,3,0,1,0,3,3A3,3,0,0,0,12,9Z" transform="translate(3 3)" fill="#fff"/>
        <path id="Trazado_194616" data-name="Trazado 194616" d="M46,32a6,6,0,1,1,6-6A6,6,0,0,1,46,32Zm0-9a3,3,0,1,0,3,3A3,3,0,0,0,46,23Z" transform="translate(20.003 10.002)" fill="#fff"/>
        <path id="Trazado_194617" data-name="Trazado 194617" d="M40,46a6,6,0,1,1,6-6A6,6,0,0,1,40,46Zm0-9a3,3,0,1,0,3,3A3,3,0,0,0,40,37Z" transform="translate(17.003 17.003)" fill="#fff"/>
        <path id="Trazado_194618" data-name="Trazado 194618" d="M40,18a6,6,0,1,1,6-6A6,6,0,0,1,40,18Zm0-9a3,3,0,1,0,3,3A3,3,0,0,0,40,9Z" transform="translate(17.003 3)" fill="#fff"/>
        <path id="Trazado_194619" data-name="Trazado 194619" d="M26,52a6,6,0,1,1,6-6A6,6,0,0,1,26,52Zm0-9a3,3,0,1,0,3,3A3,3,0,0,0,26,43Z" transform="translate(10.002 20.003)" fill="#fff"/>
        <path id="Trazado_194620" data-name="Trazado 194620" d="M26,12a6,6,0,1,1,6-6A6,6,0,0,1,26,12Zm0-9a3,3,0,1,0,3,3A3,3,0,0,0,26,3Z" transform="translate(10.002)" fill="#fff"/>
        <path id="Trazado_194621" data-name="Trazado 194621" d="M44.535,25.971A28.5,28.5,0,0,0,39.3,13.325l2.415-1.785a31.637,31.637,0,0,1,5.79,13.981Z" transform="translate(19.653 5.771)" fill="#fff"/>
        <path id="Trazado_194622" data-name="Trazado 194622" d="M39.486,11.445A28.5,28.5,0,0,0,26.84,6.21l.45-3A31.637,31.637,0,0,1,41.271,9Z" transform="translate(13.422 1.605)" fill="#fff"/>
        <path id="Trazado_194623" data-name="Trazado 194623" d="M27.29,47.515l-.45-3A28.5,28.5,0,0,0,39.486,39.28L41.271,41.7a31.637,31.637,0,0,1-13.981,5.82Z" transform="translate(13.422 19.643)" fill="#fff"/>
        <path id="Trazado_194624" data-name="Trazado 194624" d="M41.715,41.271,39.3,39.486A28.5,28.5,0,0,0,44.535,26.84l3,.45a31.637,31.637,0,0,1-5.82,13.981Z" transform="translate(19.653 13.422)" fill="#fff"/>
        <path id="Trazado_194625" data-name="Trazado 194625" d="M9.02,41.271A31.637,31.637,0,0,1,3.23,27.29l3-.45a28.5,28.5,0,0,0,5.205,12.646Z" transform="translate(1.615 13.422)" fill="#fff"/>
        <path id="Trazado_194626" data-name="Trazado 194626" d="M25.521,47.505a31.637,31.637,0,0,1-13.981-5.79L13.325,39.3a28.5,28.5,0,0,0,12.646,5.235Z" transform="translate(5.771 19.653)" fill="#fff"/>
        <path id="Trazado_194627" data-name="Trazado 194627" d="M13.325,11.435,11.54,9.02A31.637,31.637,0,0,1,25.521,3.23l.45,3a28.5,28.5,0,0,0-12.646,5.205Z" transform="translate(5.771 1.615)" fill="#fff"/>
        <path id="Trazado_194628" data-name="Trazado 194628" d="M6.21,25.971l-3-.45A31.637,31.637,0,0,1,9,11.54l2.445,1.785A28.5,28.5,0,0,0,6.21,25.971Z" transform="translate(1.605 5.771)" fill="#fff"/>
        <path id="Trazado_194629" data-name="Trazado 194629" d="M26.5,34A7.5,7.5,0,1,1,34,26.5,7.5,7.5,0,0,1,26.5,34Zm0-12A4.5,4.5,0,1,0,31,26.5,4.5,4.5,0,0,0,26.5,22Z" transform="translate(9.502 9.502)" fill="#fff"/>
        <path id="Trazado_194630" data-name="Trazado 194630" d="M33.5,50h-6a1.5,1.5,0,0,1-1.5-1.14l-1.185-4.74-4.2,2.52a1.5,1.5,0,0,1-1.83-.225L14.54,42.172a1.5,1.5,0,0,1-.225-1.83l2.52-4.2L12.14,35A1.5,1.5,0,0,1,11,33.5v-6A1.5,1.5,0,0,1,12.14,26l4.74-1.185-2.52-4.2a1.5,1.5,0,0,1,.225-1.83l4.245-4.245a1.5,1.5,0,0,1,1.83-.225l4.2,2.52L26,12.14A1.5,1.5,0,0,1,27.5,11h6A1.5,1.5,0,0,1,35,12.14l1.185,4.74,4.2-2.52a1.5,1.5,0,0,1,1.83.225l4.245,4.245a1.5,1.5,0,0,1,.225,1.83l-2.52,4.2,4.74,1.185A1.5,1.5,0,0,1,50,27.5v6a1.5,1.5,0,0,1-1.14,1.5l-4.74,1.185,2.52,4.2a1.5,1.5,0,0,1-.225,1.83l-4.245,4.245a1.5,1.5,0,0,1-1.83.225l-4.2-2.52L35,48.862A1.5,1.5,0,0,1,33.5,50Zm-4.83-3h3.66l1.4-5.565a1.5,1.5,0,0,1,2.22-.93l4.935,3,2.58-2.58-3-4.935a1.5,1.5,0,0,1,.93-2.22L47,32.331v-3.66l-5.565-1.4a1.5,1.5,0,0,1-.93-2.22l3-4.935-2.58-2.58-4.935,3a1.5,1.5,0,0,1-2.22-.93L32.331,14h-3.66l-1.4,5.565a1.5,1.5,0,0,1-2.22.93l-4.935-3-2.58,2.58,3,4.935a1.493,1.493,0,0,1-.915,2.22L14,28.671v3.66l5.565,1.4a1.5,1.5,0,0,1,.93,2.22l-3,4.935,2.58,2.58,4.935-3a1.5,1.5,0,0,1,2.22.93Z" transform="translate(5.501 5.501)" fill="#fff"/>
      </g>
    </g>
  </g>
</svg>
