<svg xmlns="http://www.w3.org/2000/svg" xmlns:xlink="http://www.w3.org/1999/xlink" width="57.785" height="56.959" viewBox="0 0 57.785 56.959">
  <defs>
    <clipPath id="clip-path">
      <rect id="Rectángulo_41257" data-name="Rectángulo 41257" width="57.785" height="56.959" fill="#b13e8d"/>
    </clipPath>
  </defs>
  <g id="Grupo_136574" data-name="Grupo 136574" transform="translate(-4 8)">
    <g id="Grupo_133297" data-name="Grupo 133297" transform="translate(4 -8)" clip-path="url(#clip-path)">
      <path id="Trazado_189668" data-name="Trazado 189668" d="M26.49,102.1s-2.273-.886-4.165-1.621a7.977,7.977,0,1,0-13.111,0c-1.892.735-4.165,1.621-4.165,1.621C3.039,102.88,0,104.06,0,108.2v9.059a.977.977,0,0,0,.977.977H30.563a.977.977,0,0,0,.977-.977V108.2c0-4.139-3.039-5.318-5.05-6.1M15.77,89.92a6.022,6.022,0,1,1-6.023,6.023A6.029,6.029,0,0,1,15.77,89.92m13.816,26.36H25.422v-4.809a.977.977,0,0,0-1.954,0v4.809H8.073v-4.809a.977.977,0,1,0-1.954,0v4.809H1.954V108.2c0-2.8,1.847-3.518,3.8-4.276,0,0,2.7-1.05,4.866-1.893a7.955,7.955,0,0,0,10.295,0c2.17.843,4.866,1.893,4.866,1.893,1.956.759,3.8,1.476,3.8,4.276Z" transform="translate(0 -61.276)" fill="#b13e8d"/>
      <path id="Trazado_189669" data-name="Trazado 189669" d="M98.137,102.1s-2.53-.987-4.158-1.619a7.979,7.979,0,0,0-9.265-12.044.977.977,0,1,0,.663,1.838,6.023,6.023,0,0,1,6.291,9.933.977.977,0,0,0,.336,1.6c2.071.8,5.426,2.111,5.426,2.111,1.956.759,3.8,1.475,3.8,4.276v8.082H94.706a.977.977,0,0,0,0,1.954h7.5a.977.977,0,0,0,.977-.977V108.2c0-4.138-3.039-5.317-5.05-6.1" transform="translate(-58.561 -61.275)" fill="#b13e8d"/>
      <path id="Trazado_189670" data-name="Trazado 189670" d="M141.506,102.1s-2.53-.987-4.158-1.619a7.979,7.979,0,0,0-9.265-12.044.977.977,0,1,0,.663,1.838,6.023,6.023,0,0,1,6.291,9.933.977.977,0,0,0,.337,1.6c2.071.8,5.425,2.111,5.425,2.111,1.956.759,3.8,1.476,3.8,4.276v8.082h-6.527a.977.977,0,1,0,0,1.954h7.5a.977.977,0,0,0,.977-.977V108.2c0-4.138-3.039-5.318-5.05-6.1" transform="translate(-88.771 -61.275)" fill="#b13e8d"/>
      <path id="Trazado_189671" data-name="Trazado 189671" d="M56.808,4.186H33.964a5.165,5.165,0,0,0-10.144,0H.977A.977.977,0,0,0,0,5.163v5.583a.977.977,0,0,0,.977.977H2.791V36.936a.977.977,0,1,0,1.954,0V11.724H53.04V36.936a.977.977,0,1,0,1.954,0V11.724h1.814a.977.977,0,0,0,.977-.977V5.163a.977.977,0,0,0-.977-.977M55.831,9.77H1.954V6.14H24.705a.977.977,0,0,0,.977-.977,3.21,3.21,0,0,1,6.421,0,.977.977,0,0,0,.977.977H55.831Z" transform="translate(0 0.001)" fill="#b13e8d"/>
      <path id="Trazado_189672" data-name="Trazado 189672" d="M91.7,11.96A1.535,1.535,0,1,0,93.236,13.5,1.537,1.537,0,0,0,91.7,11.96" transform="translate(-62.807 -8.331)" fill="#b13e8d"/>
      <path id="Trazado_189673" data-name="Trazado 189673" d="M54.171,52.923a.978.978,0,0,0-1.05,0L47.038,56.8l-6.083-3.876a.978.978,0,0,0-1.05,0L33.3,57.133a.977.977,0,0,0,1.05,1.648l6.083-3.876,6.084,3.876a.978.978,0,0,0,1.05,0l6.083-3.876,6.083,3.876a.978.978,0,0,0,1.05,0l5.183-3.3a1.953,1.953,0,1,0-1.053-1.733c0,.028,0,.056,0,.084L60.254,56.8Z" transform="translate(-22.878 -36.078)" fill="#b13e8d"/>
    </g>
  </g>
</svg>
