<svg xmlns="http://www.w3.org/2000/svg" width="65.39" height="65.229" viewBox="0 0 65.39 65.229">
  <g id="Grupo_136699" data-name="Grupo 136699" transform="translate(10846.999 6677.617)">
    <g id="Layer_2" data-name="Layer 2" transform="translate(-10846.999 -6677.617)">
      <g id="_1" data-name="1" transform="translate(0 0)">
        <path id="Trazado_194405" data-name="Trazado 194405" d="M10.54,56.07a1.359,1.359,0,0,1-1.006-.353A32.614,32.614,0,0,1,32.636,0a1.359,1.359,0,0,1,1.359,1.359V20.384a1.359,1.359,0,0,1-1.359,1.359,10.871,10.871,0,0,0-7.692,18.563,1.329,1.329,0,0,1,0,1.916L11.491,55.716a1.359,1.359,0,0,1-.951.353ZM31.277,2.718A29.9,29.9,0,0,0,10.553,52.767L22.118,41.216a13.44,13.44,0,0,1-3.071-8.6A13.589,13.589,0,0,1,31.277,19.093Z" transform="translate(0.06 0)" fill="#b13e8d"/>
        <path id="Trazado_194406" data-name="Trazado 194406" d="M33,25.331a1.359,1.359,0,0,1-.951-.408,10.871,10.871,0,0,0-7.692-3.18A1.359,1.359,0,0,1,23,20.384V1.359A1.359,1.359,0,0,1,24.359,0a32.411,32.411,0,0,1,23.1,9.513,1.362,1.362,0,0,1,0,1.916L34.007,24.882A1.359,1.359,0,0,1,33,25.331Zm-7.284-6.237a13.481,13.481,0,0,1,7.243,3L44.512,10.532A29.638,29.638,0,0,0,25.718,2.718V19.093Z" transform="translate(8.337 0)" fill="#b13e8d"/>
        <path id="Trazado_194407" data-name="Trazado 194407" d="M30.206,54.676A32.411,32.411,0,0,1,7.1,45.164a1.359,1.359,0,0,1,0-1.916L20.558,29.794a1.359,1.359,0,0,1,1.916,0,10.871,10.871,0,0,0,15.383,0,1.359,1.359,0,0,1,1.916,0L53.227,43.248a1.359,1.359,0,0,1,.082,1.916,32.411,32.411,0,0,1-23.1,9.513ZM10.053,44.145a29.9,29.9,0,0,0,40.306,0L38.808,32.58a13.589,13.589,0,0,1-17.2,0Z" transform="translate(2.489 10.553)" fill="#b13e8d"/>
        <path id="Trazado_194408" data-name="Trazado 194408" d="M44.169,53.661a1.359,1.359,0,0,1-.951-.394L29.764,39.814a1.359,1.359,0,0,1,0-1.916,10.871,10.871,0,0,0,0-15.383,1.359,1.359,0,0,1,0-1.916L43.218,7.1a1.359,1.359,0,0,1,.951-.394h0a1.359,1.359,0,0,1,1.006.394,32.614,32.614,0,0,1,0,46.2A1.359,1.359,0,0,1,44.169,53.661ZM32.591,38.808,44.155,50.359a29.9,29.9,0,0,0,0-40.306L32.591,21.6a13.589,13.589,0,0,1,0,17.2Z" transform="translate(10.623 2.409)" fill="#b13e8d"/>
        <rect id="Rectángulo_44539" data-name="Rectángulo 44539" width="5.722" height="16.348" rx="2" transform="matrix(0.695, 0.719, -0.719, 0.695, 52.003, 9.712)" fill="#e8e1f6"/>
      </g>
    </g>
    <g id="Layer_2-2" data-name="Layer 2" transform="translate(-10821.426 -6626.302)">
      <g id="_1-2" data-name="1" transform="translate(0 0)">
        <path id="Trazado_194606" data-name="Trazado 194606" d="M10.87,32.047a7.53,7.53,0,1,1,13.319,0l-.828-.442a6.589,6.589,0,1,0-11.657,0Z" transform="translate(-9.999 -21.002)" fill="#b13e8d"/>
        <path id="Trazado_194607" data-name="Trazado 194607" d="M23.883,36.765a1.883,1.883,0,1,1,1.883-1.883A1.883,1.883,0,0,1,23.883,36.765Zm0-2.824a.941.941,0,1,0,.941.941A.941.941,0,0,0,23.883,33.941Z" transform="translate(-16.352 -27.353)" fill="#b13e8d"/>
        <rect id="Rectángulo_44226" data-name="Rectángulo 44226" width="1.332" height="0.941" transform="translate(5.316 9.078) rotate(-45)" fill="#b13e8d"/>
        <rect id="Rectángulo_44227" data-name="Rectángulo 44227" width="3.996" height="0.941" transform="translate(8.139 6.253) rotate(-45)" fill="#b13e8d"/>
        <rect id="Rectángulo_44228" data-name="Rectángulo 44228" width="0.941" height="1.412" transform="translate(7.06 0.47)" fill="#b13e8d"/>
        <rect id="Rectángulo_44229" data-name="Rectángulo 44229" width="1.412" height="0.941" transform="translate(0.471 7.059)" fill="#b13e8d"/>
        <rect id="Rectángulo_44230" data-name="Rectángulo 44230" width="1.412" height="0.941" transform="translate(13.178 7.059)" fill="#b13e8d"/>
        <rect id="Rectángulo_44540" data-name="Rectángulo 44540" width="1.412" height="0.941" transform="matrix(0.819, -0.574, 0.574, 0.819, 10.782, 2.692)" fill="#b13e8d"/>
        <rect id="Rectángulo_44231" data-name="Rectángulo 44231" width="0.941" height="1.412" transform="translate(2.205 2.872) rotate(-45)" fill="#b13e8d"/>
      </g>
    </g>
    <g id="Layer_2-3" data-name="Layer 2" transform="translate(-10840.816 -6655.861)">
      <g id="_1-3" data-name="1" transform="translate(0 0)">
        <path id="Trazado_194672" data-name="Trazado 194672" d="M21.337,27.675a2.337,2.337,0,1,1,2.337-2.337A2.337,2.337,0,0,1,21.337,27.675Zm0-3.74a1.4,1.4,0,1,0,1.4,1.4A1.4,1.4,0,0,0,21.337,23.935Z" transform="translate(-15.26 -19.26)" fill="#b13e8d"/>
        <path id="Trazado_194673" data-name="Trazado 194673" d="M18.012,27.154h-1.87a.467.467,0,0,1-.467-.355l-.369-1.477L14,26.107a.467.467,0,0,1-.57-.07L12.1,24.714a.467.467,0,0,1-.07-.57l.785-1.309-1.463-.355A.467.467,0,0,1,11,22.012v-1.87a.467.467,0,0,1,.355-.467l1.477-.369L12.047,18a.467.467,0,0,1,.07-.57L13.44,16.1a.467.467,0,0,1,.57-.07l1.309.785.355-1.463A.467.467,0,0,1,16.142,15h1.87a.467.467,0,0,1,.467.355l.369,1.477,1.309-.785a.467.467,0,0,1,.57.07l1.323,1.323a.467.467,0,0,1,.07.57l-.785,1.309,1.477.369a.467.467,0,0,1,.341.453v1.87a.467.467,0,0,1-.355.467l-1.477.369.785,1.309a.467.467,0,0,1-.07.57l-1.323,1.323a.467.467,0,0,1-.57.07l-1.309-.785L18.479,26.8a.467.467,0,0,1-.467.355Zm-1.505-.935h1.141l.435-1.734a.467.467,0,0,1,.692-.29l1.538.935.8-.8-.935-1.538a.467.467,0,0,1,.29-.692l1.748-.449V20.507l-1.734-.435a.467.467,0,0,1-.29-.692l.935-1.538-.8-.8-1.538.935a.467.467,0,0,1-.692-.29l-.449-1.748H16.507l-.435,1.734a.467.467,0,0,1-.692.29l-1.538-.935-.8.8.935,1.538a.467.467,0,0,1-.29.692l-1.748.449v1.141l1.734.435a.467.467,0,0,1,.29.692l-.935,1.538.8.8,1.538-.935a.467.467,0,0,1,.692.29Z" transform="translate(-11 -15)" fill="#b13e8d"/>
      </g>
    </g>
    <g id="Layer_2-4" data-name="Layer 2" transform="translate(-10797.883 -6655.174)">
      <g id="_1-4" data-name="1" transform="translate(0 0)">
        <path id="Trazado_194833" data-name="Trazado 194833" d="M3.955,10.166H2.825V6.212H.566a.568.568,0,0,1-.4-.966L5.249.161a.565.565,0,0,1,.8,0l5.084,5.084a.568.568,0,0,1-.4.966H8.475v2.26H7.345V5.647a.565.565,0,0,1,.565-.565H9.373L5.65,1.359,1.927,5.082H3.39a.565.565,0,0,1,.565.565Z" transform="translate(-0.002 0.006)" fill="#b13e8d"/>
      </g>
    </g>
    <text id="ETL" transform="translate(-10822.396 -6641.502)" fill="#b13e8d" font-size="9" font-family="Montserrat-Bold, Montserrat" font-weight="700"><tspan x="0" y="0">ETL</tspan></text>
  </g>
</svg>
