<svg xmlns="http://www.w3.org/2000/svg" width="120" height="120" viewBox="0 0 120 120">
  <g id="Grupo_136694" data-name="Grupo 136694" transform="translate(-758 -904)">
    <circle id="Elipse_5415" data-name="Elipse 5415" cx="60" cy="60" r="60" transform="translate(758 904)" fill="#b13e8d"/>
    <g id="Grupo_136683" data-name="Grupo 136683" transform="translate(784 930)">
      <path id="Trazado_195260" data-name="Trazado 195260" d="M22.3,14.6l4.317,4.228,5.874,3.249L46.683,5.83s2.289,2.805,3.6,2.314S54.07,10.77,54.07,10.77L62.3,0V37.382H0S6.219,29.995,11.793,24.3A140,140,0,0,1,22.3,14.6Z" transform="translate(5.696 29.145)" fill="#fff" opacity="0.68"/>
      <g id="Layer_2" data-name="Layer 2">
        <g id="_1" data-name="1">
          <rect id="Rectángulo_44098" data-name="Rectángulo 44098" width="5.696" height="2.848" transform="translate(1.424 8.544)" fill="#fff"/>
          <rect id="Rectángulo_44099" data-name="Rectángulo 44099" width="5.696" height="2.848" transform="translate(1.424 19.937)" fill="#fff"/>
          <rect id="Rectángulo_44100" data-name="Rectángulo 44100" width="5.696" height="2.848" transform="translate(1.424 31.33)" fill="#fff"/>
          <rect id="Rectángulo_44101" data-name="Rectángulo 44101" width="5.696" height="2.848" transform="translate(1.424 42.722)" fill="#fff"/>
          <rect id="Rectángulo_44102" data-name="Rectángulo 44102" width="5.696" height="2.848" transform="translate(1.424 54.115)" fill="#fff"/>
          <path id="Trazado_194470" data-name="Trazado 194470" d="M68.356,68.356H1.424A1.424,1.424,0,0,1,0,66.932V0H2.848V65.508H68.356Z" fill="#fff"/>
          <g id="Grupo_136682" data-name="Grupo 136682" transform="translate(3.068 27.784)">
            <path id="Trazado_194471" data-name="Trazado 194471" d="M44.282,34.449a1.424,1.424,0,0,1-.926-.342L36.62,28.339l1.866-2.165,5.4,4.628,6.28-11.293,1.678.964.8.46L45.52,33.751a1.424,1.424,0,0,1-.983.7Z" transform="translate(12.462 -19.51)" fill="#fff"/>
            <path id="Trazado_194472" data-name="Trazado 194472" d="M30.313,44.349a1.424,1.424,0,0,1-.755-.214L19.188,36.913l.623-3.382,9.99,7.4,13.952-17.9,2.4,1.958-14.6,18.651a1.446,1.446,0,0,1-1.239.712Z" transform="translate(5.069 -18.018)" fill="#fff"/>
            <rect id="Rectángulo_44103" data-name="Rectángulo 44103" width="33.362" height="2.848" transform="translate(0 37.683) rotate(-42.29)" fill="#fff"/>
          </g>
        </g>
      </g>
    </g>
  </g>
</svg>
