<svg xmlns="http://www.w3.org/2000/svg" xmlns:xlink="http://www.w3.org/1999/xlink" width="130.5" height="112" viewBox="0 0 130.5 112">
  <defs>
    <linearGradient id="linear-gradient" x1="0.5" x2="0.5" y2="1" gradientUnits="objectBoundingBox">
      <stop offset="0" stop-color="#f7ca2e" stop-opacity="0"/>
      <stop offset="0.091" stop-color="#f7ca2e" stop-opacity="0.129"/>
      <stop offset="0.283" stop-color="#f7ca2e" stop-opacity="0.388"/>
      <stop offset="0.465" stop-color="#f7ca2e" stop-opacity="0.612"/>
      <stop offset="0.633" stop-color="#f7ca2e" stop-opacity="0.78"/>
      <stop offset="0.784" stop-color="#f7ca2e" stop-opacity="0.902"/>
      <stop offset="0.911" stop-color="#f7ca2e" stop-opacity="0.969"/>
      <stop offset="1" stop-color="#f7ca2e"/>
    </linearGradient>
    <linearGradient id="linear-gradient-2" x1="0.5" x2="0.5" y2="1" gradientUnits="objectBoundingBox">
      <stop offset="0" stop-color="#b13e8d" stop-opacity="0"/>
      <stop offset="0.091" stop-color="#b13e8d" stop-opacity="0.129"/>
      <stop offset="0.283" stop-color="#b13e8d" stop-opacity="0.388"/>
      <stop offset="0.465" stop-color="#b13e8d" stop-opacity="0.612"/>
      <stop offset="0.633" stop-color="#b13e8d" stop-opacity="0.78"/>
      <stop offset="0.784" stop-color="#b13e8d"/>
      <stop offset="0.911" stop-color="#b13e8d" stop-opacity="0.969"/>
      <stop offset="1" stop-color="#b13e8d"/>
    </linearGradient>
    <filter id="Rectángulo_40720" x="11.5" y="4" width="108" height="108" filterUnits="userSpaceOnUse">
      <feOffset dy="3" input="SourceAlpha"/>
      <feGaussianBlur stdDeviation="3" result="blur"/>
      <feFlood flood-opacity="0.161"/>
      <feComposite operator="in" in2="blur"/>
      <feComposite in="SourceGraphic"/>
    </filter>
  </defs>
  <g id="Grupo_136725" data-name="Grupo 136725" transform="translate(-209.5 -1417)">
    <g id="Grupo_108405" data-name="Grupo 108405" transform="translate(209.5 1481)">
      <path id="Rectángulo_5242" data-name="Rectángulo 5242" d="M0,0H12a0,0,0,0,1,0,0V43.333a3,3,0,0,1-3,3H3a3,3,0,0,1-3-3V0A0,0,0,0,1,0,0Z" transform="translate(0 0)" fill="url(#linear-gradient)"/>
    </g>
    <g id="Grupo_108406" data-name="Grupo 108406" transform="translate(340 1469) rotate(180)">
      <path id="Rectángulo_5242-2" data-name="Rectángulo 5242" d="M0,0H12a0,0,0,0,1,0,0V49a3,3,0,0,1-3,3H3a3,3,0,0,1-3-3V0A0,0,0,0,1,0,0Z" transform="translate(0 0)" fill="url(#linear-gradient-2)"/>
    </g>
    <g id="Grupo_136282" data-name="Grupo 136282">
      <g transform="matrix(1, 0, 0, 1, 209.5, 1417)" filter="url(#Rectángulo_40720)">
        <path id="Rectángulo_40720-2" data-name="Rectángulo 40720" d="M10,0H80A10,10,0,0,1,90,10V90a0,0,0,0,1,0,0H10A10,10,0,0,1,0,80V10A10,10,0,0,1,10,0Z" transform="translate(20.5 10)" fill="#f6f6f6"/>
      </g>
      <g id="Layer_2" data-name="Layer 2" transform="translate(244.8 1441.971)">
        <g id="_1" data-name="1" transform="translate(-0.006 -0.006)">
          <path id="Trazado_194520" data-name="Trazado 194520" d="M27.1,42.2A15.1,15.1,0,1,1,42.2,27.1,15.1,15.1,0,0,1,27.1,42.2Zm0-27.682A12.583,12.583,0,1,0,39.682,27.1,12.583,12.583,0,0,0,27.1,14.517Z" transform="translate(3.107 3.107)" fill="#6836bf"/>
          <path id="Trazado_194521" data-name="Trazado 194521" d="M25.294,30.844c-3.473,0-6.291-3.385-6.291-7.55A5.889,5.889,0,0,1,25.294,17a5.889,5.889,0,0,1,6.291,6.291C31.586,27.459,28.767,30.844,25.294,30.844Zm0-11.324a3.422,3.422,0,0,0-3.775,3.775c0,2.781,1.7,5.033,3.775,5.033s3.775-2.252,3.775-5.033a3.422,3.422,0,0,0-3.775-3.775Z" transform="translate(4.911 4.395)" fill="#6836bf"/>
          <path id="Trazado_194522" data-name="Trazado 194522" d="M37.649,32.985H35.132V31.853a2.517,2.517,0,0,0-2.2-2.517l-6.606-.818-6.606.818a2.517,2.517,0,0,0-2.2,2.517v1.132H15V31.853a5.033,5.033,0,0,1,4.4-5.033L26.173,26a1.258,1.258,0,0,1,.3,0l6.77.843a5.033,5.033,0,0,1,4.4,5.033Z" transform="translate(3.881 6.721)" fill="#6836bf"/>
          <path id="Trazado_194523" data-name="Trazado 194523" d="M29.356,7.186l-4.14-4.152-4.14,4.152L19.29,5.4,24.323.366a1.258,1.258,0,0,1,1.787,0L31.143,5.4Z" transform="translate(4.989 0.006)" fill="#6836bf"/>
          <path id="Trazado_194524" data-name="Trazado 194524" d="M8.517,14.808H6V7.258A1.258,1.258,0,0,1,7.258,6h7.55V8.517H8.517Z" transform="translate(1.557 1.557)" fill="#6836bf"/>
          <rect id="Rectángulo_44142" data-name="Rectángulo 44142" width="2.517" height="12.583" transform="translate(28.948 1.266)" fill="#6836bf"/>
          <path id="Trazado_194525" data-name="Trazado 194525" d="M25.216,49.475a1.258,1.258,0,0,1-.893-.365L19.29,44.077l1.787-1.787,4.14,4.152,4.14-4.152,1.787,1.787L26.11,49.11A1.258,1.258,0,0,1,25.216,49.475Z" transform="translate(4.989 10.93)" fill="#6836bf"/>
          <rect id="Rectángulo_44143" data-name="Rectángulo 44143" width="2.517" height="12.583" transform="translate(28.948 46.563)" fill="#6836bf"/>
          <path id="Trazado_194526" data-name="Trazado 194526" d="M5.4,31.143.366,26.11a1.258,1.258,0,0,1,0-1.787L5.4,19.29l1.787,1.787-4.152,4.14,4.152,4.14Z" transform="translate(0.006 4.989)" fill="#6836bf"/>
          <rect id="Rectángulo_44144" data-name="Rectángulo 44144" width="12.583" height="2.517" transform="translate(1.266 28.948)" fill="#6836bf"/>
          <path id="Trazado_194527" data-name="Trazado 194527" d="M44.077,31.143,42.29,29.356l4.152-4.14-4.152-4.14,1.787-1.787,5.033,5.033a1.258,1.258,0,0,1,0,1.787Z" transform="translate(10.93 4.989)" fill="#6836bf"/>
          <rect id="Rectángulo_44145" data-name="Rectángulo 44145" width="12.583" height="2.517" transform="translate(46.563 28.948)" fill="#6836bf"/>
          <rect id="Rectángulo_44146" data-name="Rectángulo 44146" width="2.517" height="14.231" transform="translate(7.918 9.702) rotate(-45)" fill="#6836bf"/>
          <path id="Trazado_194528" data-name="Trazado 194528" d="M43.808,14.808H41.291V8.517H35V6h7.55a1.258,1.258,0,0,1,1.258,1.258Z" transform="translate(9.047 1.557)" fill="#6836bf"/>
          <rect id="Rectángulo_44147" data-name="Rectángulo 44147" width="14.231" height="2.517" transform="translate(40.639 17.988) rotate(-45)" fill="#6836bf"/>
          <path id="Trazado_194529" data-name="Trazado 194529" d="M42.55,43.808H35V41.291h6.291V35h2.517v7.55A1.258,1.258,0,0,1,42.55,43.808Z" transform="translate(9.047 9.047)" fill="#6836bf"/>
          <rect id="Rectángulo_44148" data-name="Rectángulo 44148" width="2.517" height="14.231" transform="translate(40.633 42.417) rotate(-45)" fill="#6836bf"/>
          <path id="Trazado_194530" data-name="Trazado 194530" d="M14.808,43.808H7.258A1.258,1.258,0,0,1,6,42.55V35H8.517v6.291h6.291Z" transform="translate(1.557 9.047)" fill="#6836bf"/>
          <rect id="Rectángulo_44149" data-name="Rectángulo 44149" width="14.231" height="2.517" transform="translate(7.924 50.716) rotate(-45)" fill="#6836bf"/>
        </g>
      </g>
    </g>
  </g>
</svg>
