<svg xmlns="http://www.w3.org/2000/svg" width="73" height="73" viewBox="0 0 73 73">
  <g id="Grupo_136162" data-name="Grupo 136162" transform="translate(-1316.623 104.377)">
    <g id="Layer_2" data-name="Layer 2" transform="translate(1316.623 -104.377)">
      <g id="_1" data-name="1">
        <rect id="Rectángulo_44214" data-name="Rectángulo 44214" width="6.083" height="3.042" transform="translate(1.521 9.125)" fill="#b13e8d"/>
        <rect id="Rectángulo_44215" data-name="Rectángulo 44215" width="6.083" height="3.042" transform="translate(1.521 21.292)" fill="#b13e8d"/>
        <rect id="Rectángulo_44216" data-name="Rectángulo 44216" width="6.083" height="3.042" transform="translate(1.521 33.458)" fill="#b13e8d"/>
        <rect id="Rectángulo_44217" data-name="Rectángulo 44217" width="6.083" height="3.042" transform="translate(1.521 45.625)" fill="#b13e8d"/>
        <rect id="Rectángulo_44218" data-name="Rectángulo 44218" width="6.083" height="3.042" transform="translate(1.521 57.792)" fill="#b13e8d"/>
        <path id="Trazado_194605" data-name="Trazado 194605" d="M73,73H1.521A1.521,1.521,0,0,1,0,71.479V0H3.042V69.958H73Z" fill="#b13e8d"/>
        <rect id="Rectángulo_44219" data-name="Rectángulo 44219" width="3.042" height="66.917" transform="translate(69.958)" fill="#b13e8d"/>
        <rect id="Rectángulo_44220" data-name="Rectángulo 44220" width="3.042" height="28.896" transform="translate(60.833 12.167)" fill="#b13e8d"/>
        <rect id="Rectángulo_44221" data-name="Rectángulo 44221" width="3.042" height="27.375" transform="translate(51.708 6.083)" fill="#b13e8d"/>
        <rect id="Rectángulo_44222" data-name="Rectángulo 44222" width="3.042" height="15.208" transform="translate(42.583 15.208)" fill="#b13e8d"/>
        <rect id="Rectángulo_44223" data-name="Rectángulo 44223" width="3.042" height="10.646" transform="translate(33.458 19.771)" fill="#b13e8d"/>
        <rect id="Rectángulo_44224" data-name="Rectángulo 44224" width="3.042" height="19.771" transform="translate(24.333 13.688)" fill="#b13e8d"/>
        <rect id="Rectángulo_44225" data-name="Rectángulo 44225" width="3.042" height="15.208" transform="translate(15.208 25.854)" fill="#b13e8d"/>
        <path id="Trazado_194606" data-name="Trazado 194606" d="M12.814,56.693a24.333,24.333,0,1,1,43.04,0l-2.677-1.43a21.292,21.292,0,1,0-37.671,0Z" transform="translate(5.208 10.938)" fill="#b13e8d"/>
        <path id="Trazado_194607" data-name="Trazado 194607" d="M28.083,45.167a6.083,6.083,0,1,1,6.083-6.083A6.083,6.083,0,0,1,28.083,45.167Zm0-9.125a3.042,3.042,0,1,0,3.042,3.042A3.042,3.042,0,0,0,28.083,36.042Z" transform="translate(11.458 17.188)" fill="#b13e8d"/>
        <rect id="Rectángulo_44226" data-name="Rectángulo 44226" width="4.304" height="3.042" transform="translate(32.384 61.276) rotate(-45)" fill="#b13e8d"/>
        <rect id="Rectángulo_44227" data-name="Rectángulo 44227" width="12.912" height="3.042" transform="translate(41.508 52.147) rotate(-45)" fill="#b13e8d"/>
        <rect id="Rectángulo_44228" data-name="Rectángulo 44228" width="3.042" height="4.563" transform="translate(38.021 33.458)" fill="#b13e8d"/>
        <rect id="Rectángulo_44229" data-name="Rectángulo 44229" width="4.563" height="3.042" transform="translate(16.729 54.75)" fill="#b13e8d"/>
        <rect id="Rectángulo_44230" data-name="Rectángulo 44230" width="4.563" height="3.042" transform="translate(57.792 54.75)" fill="#b13e8d"/>
        <rect id="Rectángulo_44231" data-name="Rectángulo 44231" width="3.042" height="4.563" transform="translate(22.332 41.222) rotate(-45)" fill="#b13e8d"/>
      </g>
    </g>
  </g>
</svg>
