<svg xmlns="http://www.w3.org/2000/svg" width="69.342" height="69.334" viewBox="0 0 69.342 69.334">
  <g id="Grupo_136161" data-name="Grupo 136161" transform="translate(-618.869 36.128)">
    <g id="Layer_2" data-name="Layer 2" transform="translate(618.869 -36.128)">
      <g id="_1" data-name="1">
        <path id="Trazado_194464" data-name="Trazado 194464" d="M28.889,57.778A28.889,28.889,0,1,1,57.778,28.889,28.889,28.889,0,0,1,28.889,57.778Zm0-54.889a26,26,0,1,0,26,26A26,26,0,0,0,28.889,2.889Z" fill="#b13e8d"/>
        <path id="Trazado_194465" data-name="Trazado 194465" d="M7.889,26.667H5A21.667,21.667,0,0,1,26.667,5V7.889A18.778,18.778,0,0,0,7.889,26.667Z" transform="translate(2.222 2.222)" fill="#b13e8d"/>
        <path id="Trazado_194466" data-name="Trazado 194466" d="M46.2,56.316a1.444,1.444,0,0,1-1.026-.419L29.29,40.008l2.051-2.051L46.2,52.835l6.63-6.63L37.957,31.341l2.051-2.051L55.9,45.179a1.444,1.444,0,0,1,0,2.051L47.23,55.9A1.444,1.444,0,0,1,46.2,56.316Z" transform="translate(13.018 13.018)" fill="#b13e8d"/>
        <path id="Trazado_194467" data-name="Trazado 194467" d="M29.445,47.111H26.556V13.889H17.889V47.111H15V12.444A1.444,1.444,0,0,1,16.444,11H28a1.444,1.444,0,0,1,1.444,1.444Z" transform="translate(6.667 4.889)" fill="#b13e8d"/>
        <path id="Trazado_194468" data-name="Trazado 194468" d="M9.889,34.556H7V24.444A1.444,1.444,0,0,1,8.444,23H20v2.889H9.889Z" transform="translate(3.111 10.222)" fill="#b13e8d"/>
        <path id="Trazado_194469" data-name="Trazado 194469" d="M37,37.222H34.111V19.889H24V17H35.556A1.444,1.444,0,0,1,37,18.444Z" transform="translate(10.667 7.556)" fill="#b13e8d"/>
      </g>
    </g>
  </g>
</svg>
