<svg xmlns="http://www.w3.org/2000/svg" width="66" height="66" viewBox="0 0 66 66">
  <g id="Grupo_136163" data-name="Grupo 136163" transform="translate(-17.823 -17.823)">
    <g id="Layer_2" data-name="Layer 2" transform="translate(17.823 17.823)">
      <g id="_1" data-name="1">
        <rect id="Rectángulo_43713" data-name="Rectángulo 43713" width="9" height="2" transform="translate(41 10)" fill="#b13e8d"/>
        <rect id="Rectángulo_43714" data-name="Rectángulo 43714" width="7" height="2" transform="translate(32 10)" fill="#b13e8d"/>
        <rect id="Rectángulo_43715" data-name="Rectángulo 43715" width="13" height="3" transform="translate(32 15)" fill="#b13e8d"/>
        <rect id="Rectángulo_43716" data-name="Rectángulo 43716" width="10" height="3" transform="translate(40 40)" fill="#b13e8d"/>
        <rect id="Rectángulo_43717" data-name="Rectángulo 43717" width="5" height="3" transform="translate(32 40)" fill="#b13e8d"/>
        <rect id="Rectángulo_43718" data-name="Rectángulo 43718" width="7" height="3" transform="translate(43 45)" fill="#b13e8d"/>
        <rect id="Rectángulo_43719" data-name="Rectángulo 43719" width="8" height="3" transform="translate(32 45)" fill="#b13e8d"/>
        <rect id="Rectángulo_43720" data-name="Rectángulo 43720" width="9" height="2" transform="translate(41 25)" fill="#b13e8d"/>
        <rect id="Rectángulo_43721" data-name="Rectángulo 43721" width="7" height="2" transform="translate(32 25)" fill="#b13e8d"/>
        <rect id="Rectángulo_43722" data-name="Rectángulo 43722" width="11" height="2" transform="translate(32 31)" fill="#b13e8d"/>
        <path id="Trazado_194179" data-name="Trazado 194179" d="M16.391,27.455l-5.1-5.087,1.953-1.952,3.149,3.162,7.274-7.287,1.952,1.952Z" transform="translate(4.234 6.109)" fill="#b13e8d"/>
        <path id="Trazado_194180" data-name="Trazado 194180" d="M40.125,51H15.375A1.375,1.375,0,0,1,14,49.625v-8.25A1.375,1.375,0,0,1,15.375,40h24.75A1.375,1.375,0,0,1,41.5,41.375v8.25A1.375,1.375,0,0,1,40.125,51ZM16.75,48.25h22v-5.5h-22Z" transform="translate(5.25 15)" fill="#b13e8d"/>
        <path id="Trazado_194181" data-name="Trazado 194181" d="M20.25,17h-5.5A2.75,2.75,0,0,1,12,14.25V8.75A2.75,2.75,0,0,1,14.75,6h5.5A2.75,2.75,0,0,1,23,8.75v5.5A2.75,2.75,0,0,1,20.25,17Zm-5.5-8.25v5.5h5.5V8.75Z" transform="translate(4.5 2.25)" fill="#b13e8d"/>
        <path id="Trazado_194182" data-name="Trazado 194182" d="M20.25,39h-5.5A2.75,2.75,0,0,1,12,36.25v-5.5A2.75,2.75,0,0,1,14.75,28h5.5A2.75,2.75,0,0,1,23,30.75v5.5A2.75,2.75,0,0,1,20.25,39Zm-5.5-8.25v5.5h5.5v-5.5Z" transform="translate(4.5 10.5)" fill="#b13e8d"/>
        <path id="Trazado_194183" data-name="Trazado 194183" d="M61.875,54.75H4.125A4.125,4.125,0,0,1,0,50.625v-38.5A4.125,4.125,0,0,1,4.125,8h2.75v2.75H4.125A1.375,1.375,0,0,0,2.75,12.125v38.5A1.375,1.375,0,0,0,4.125,52h57.75a1.375,1.375,0,0,0,1.375-1.375v-38.5a1.375,1.375,0,0,0-1.375-1.375h-2.75V8h2.75A4.125,4.125,0,0,1,66,12.125v38.5A4.125,4.125,0,0,1,61.875,54.75Z" transform="translate(0 3)" fill="#b13e8d"/>
        <path id="Trazado_194184" data-name="Trazado 194184" d="M53.75,52.25H51V2.75H9.75v49.5H7V1.375A1.375,1.375,0,0,1,8.375,0h44A1.375,1.375,0,0,1,53.75,1.375Z" transform="translate(2.625)" fill="#b13e8d"/>
        <rect id="Rectángulo_43723" data-name="Rectángulo 43723" width="44" height="3" transform="translate(11 63)" fill="#b13e8d"/>
      </g>
    </g>
  </g>
</svg>
