<svg xmlns="http://www.w3.org/2000/svg" width="120" height="120" viewBox="0 0 120 120">
  <g id="Grupo_136764" data-name="Grupo 136764" transform="translate(-740 -4632)">
    <g id="Grupo_136729" data-name="Grupo 136729" transform="translate(-438 3731)">
      <circle id="Elipse_5412" data-name="Elipse 5412" cx="60" cy="60" r="60" transform="translate(1178 901)" fill="#b13e8d"/>
    </g>
    <g id="Layer_2" data-name="Layer 2" transform="translate(765 4657)">
      <g id="_1" data-name="1">
        <rect id="Rectángulo_43713" data-name="Rectángulo 43713" width="8.75" height="2.917" transform="translate(43.748 10.208)" fill="#fff"/>
        <rect id="Rectángulo_43714" data-name="Rectángulo 43714" width="7.291" height="2.917" transform="translate(33.54 10.208)" fill="#fff"/>
        <rect id="Rectángulo_43715" data-name="Rectángulo 43715" width="14.583" height="2.917" transform="translate(33.54 16.041)" fill="#fff"/>
        <rect id="Rectángulo_43716" data-name="Rectángulo 43716" width="10.208" height="2.917" transform="translate(42.289 42.289)" fill="#fff"/>
        <rect id="Rectángulo_43717" data-name="Rectángulo 43717" width="5.833" height="2.917" transform="translate(33.54 42.289)" fill="#fff"/>
        <rect id="Rectángulo_43718" data-name="Rectángulo 43718" width="7.291" height="2.917" transform="translate(45.206 48.122)" fill="#fff"/>
        <rect id="Rectángulo_43719" data-name="Rectángulo 43719" width="8.75" height="2.917" transform="translate(33.54 48.122)" fill="#fff"/>
        <rect id="Rectángulo_43720" data-name="Rectángulo 43720" width="8.75" height="2.917" transform="translate(43.748 26.249)" fill="#fff"/>
        <rect id="Rectángulo_43721" data-name="Rectángulo 43721" width="7.291" height="2.917" transform="translate(33.54 26.249)" fill="#fff"/>
        <rect id="Rectángulo_43722" data-name="Rectángulo 43722" width="11.666" height="2.917" transform="translate(33.54 32.082)" fill="#fff"/>
        <path id="Trazado_194179" data-name="Trazado 194179" d="M16.7,28.131l-5.41-5.4,2.071-2.071L16.7,24.019l7.714-7.729,2.071,2.071Z" transform="translate(5.174 7.465)" fill="#fff"/>
        <path id="Trazado_194180" data-name="Trazado 194180" d="M41.707,51.666H15.458A1.458,1.458,0,0,1,14,50.208v-8.75A1.458,1.458,0,0,1,15.458,40H41.707a1.458,1.458,0,0,1,1.458,1.458v8.75A1.458,1.458,0,0,1,41.707,51.666ZM16.917,48.75H40.249V42.917H16.917Z" transform="translate(6.416 18.33)" fill="#fff"/>
        <path id="Trazado_194181" data-name="Trazado 194181" d="M20.75,17.666H14.917A2.917,2.917,0,0,1,12,14.75V8.917A2.917,2.917,0,0,1,14.917,6H20.75a2.917,2.917,0,0,1,2.917,2.917V14.75A2.917,2.917,0,0,1,20.75,17.666Zm-5.833-8.75V14.75H20.75V8.917Z" transform="translate(5.499 2.75)" fill="#fff"/>
        <path id="Trazado_194182" data-name="Trazado 194182" d="M20.75,39.666H14.917A2.917,2.917,0,0,1,12,36.75V30.917A2.917,2.917,0,0,1,14.917,28H20.75a2.917,2.917,0,0,1,2.917,2.917V36.75A2.917,2.917,0,0,1,20.75,39.666Zm-5.833-8.75V36.75H20.75V30.917Z" transform="translate(5.499 12.831)" fill="#fff"/>
        <path id="Trazado_194183" data-name="Trazado 194183" d="M65.621,57.581H4.375A4.375,4.375,0,0,1,0,53.206V12.375A4.375,4.375,0,0,1,4.375,8H7.291v2.917H4.375a1.458,1.458,0,0,0-1.458,1.458V53.206a1.458,1.458,0,0,0,1.458,1.458H65.621a1.458,1.458,0,0,0,1.458-1.458V12.375a1.458,1.458,0,0,0-1.458-1.458H62.7V8h2.917A4.375,4.375,0,0,1,70,12.375V53.206A4.375,4.375,0,0,1,65.621,57.581Z" transform="translate(0 3.666)" fill="#fff"/>
        <path id="Trazado_194184" data-name="Trazado 194184" d="M56.581,55.414H53.664V2.917H9.917v52.5H7V1.458A1.458,1.458,0,0,1,8.458,0H55.122a1.458,1.458,0,0,1,1.458,1.458Z" transform="translate(3.208)" fill="#fff"/>
        <rect id="Rectángulo_43723" data-name="Rectángulo 43723" width="46.664" height="2.917" transform="translate(11.666 67.08)" fill="#fff"/>
      </g>
    </g>
  </g>
</svg>
