<svg xmlns="http://www.w3.org/2000/svg" xmlns:xlink="http://www.w3.org/1999/xlink" width="62.001" height="60.827" viewBox="0 0 62.001 60.827">
  <defs>
    <clipPath id="clip-path">
      <rect id="Rectángulo_43748" data-name="Rectángulo 43748" width="62.001" height="60.827" fill="#b13e8d"/>
    </clipPath>
  </defs>
  <g id="Grupo_136576" data-name="Grupo 136576" transform="translate(-205 -5867)">
    <g id="Grupo_136554" data-name="Grupo 136554" transform="translate(205 5867)">
      <g id="Grupo_136553" data-name="Grupo 136553" clip-path="url(#clip-path)">
        <path id="Trazado_193699" data-name="Trazado 193699" d="M27.768,17.5c-.2-.109-3.2-1.792-5.235-2.926a8.714,8.714,0,1,0-12.89,0C7.609,15.707,4.606,17.39,4.41,17.5,1.356,19.184-.352,20.4.061,25.776c.412,5.35,1.149,12.776,1.157,12.85a1.052,1.052,0,0,0,.481.783L6.716,42.62V57.609a3.221,3.221,0,0,0,3.217,3.217H22.244a3.221,3.221,0,0,0,3.217-3.217V42.62l5.017-3.211a1.054,1.054,0,0,0,.481-.783c.007-.075.745-7.5,1.157-12.85.413-5.376-1.294-6.592-4.349-8.278M16.089,2.108A6.606,6.606,0,1,1,9.483,8.714a6.614,6.614,0,0,1,6.606-6.606m0,15.32a8.726,8.726,0,0,0,1.087-.07l2.3,11.1-3.385,3.414L12.7,28.458l2.3-11.1a8.726,8.726,0,0,0,1.087.07m13.926,8.187c-.347,4.517-.929,10.528-1.1,12.3L23.84,41.155a1.055,1.055,0,0,0-.486.888V57.609a1.11,1.11,0,0,1-1.109,1.109h-5.1V46.534a1.054,1.054,0,1,0-2.108,0V58.719h-5.1a1.11,1.11,0,0,1-1.109-1.109V42.043a1.054,1.054,0,0,0-.486-.888L3.265,37.909c-.173-1.767-.755-7.778-1.1-12.3-.33-4.286.723-4.867,3.266-6.271.2-.111,3.648-2.042,5.935-3.314a8.678,8.678,0,0,0,1.593.813l-2.43,11.742a1.055,1.055,0,0,0,.284.956l4.512,4.551a1.054,1.054,0,0,0,.748.312h.038a1.053,1.053,0,0,0,.748-.312l4.512-4.551a1.054,1.054,0,0,0,.283-.956l-2.43-11.742a8.676,8.676,0,0,0,1.592-.813c2.287,1.272,5.734,3.2,5.936,3.314,2.542,1.4,3.595,1.985,3.265,6.271" transform="translate(0 0)" fill="#b13e8d"/>
        <path id="Trazado_193700" data-name="Trazado 193700" d="M115.569,107.321s-1.99-.776-3.71-1.444a7.572,7.572,0,1,0-12.651,0c-1.72.668-3.71,1.444-3.71,1.444-1.909.741-4.795,1.86-4.795,5.813v8.436a1.054,1.054,0,0,0,1.054,1.054H119.31a1.054,1.054,0,0,0,1.054-1.054v-8.436c0-3.953-2.886-5.072-4.8-5.813M105.534,96.257a5.464,5.464,0,1,1-5.464,5.464,5.471,5.471,0,0,1,5.464-5.464m12.722,24.26H92.812v-7.383c0-2.335,1.366-3.04,3.45-3.848,0,0,2.43-.947,4.45-1.731a7.557,7.557,0,0,0,9.645,0c2.021.785,4.45,1.731,4.45,1.731,2.084.808,3.45,1.513,3.45,3.848Z" transform="translate(-59.537 -61.798)" fill="#b13e8d"/>
        <path id="Trazado_193701" data-name="Trazado 193701" d="M104.225,45.567l4.662-5.438,3.657,2.911A1.054,1.054,0,0,0,114,42.9l5.324-6.209a1.054,1.054,0,0,0-1.6-1.372l-4.662,5.438L109.4,37.847a1.054,1.054,0,0,0-1.457.139L102.625,44.2a1.054,1.054,0,1,0,1.6,1.372" transform="translate(-67.195 -22.942)" fill="#b13e8d"/>
        <path id="Trazado_193702" data-name="Trazado 193702" d="M106.968,0H75.638a1.054,1.054,0,1,0,0,2.108h31.33a1.882,1.882,0,0,1,0,3.764H78A1.054,1.054,0,1,0,78,7.98h27.914V26.542H86.143a1.054,1.054,0,0,0,0,2.108h20.824a1.054,1.054,0,0,0,1.054-1.054V7.834A3.988,3.988,0,0,0,106.968,0" transform="translate(-48.956)" fill="#b13e8d"/>
      </g>
    </g>
  </g>
</svg>
