<svg xmlns="http://www.w3.org/2000/svg" xmlns:xlink="http://www.w3.org/1999/xlink" width="130.5" height="112" viewBox="0 0 130.5 112">
  <defs>
    <linearGradient id="linear-gradient" x1="0.5" x2="0.5" y2="1" gradientUnits="objectBoundingBox">
      <stop offset="0" stop-color="#f7ca2e" stop-opacity="0"/>
      <stop offset="0.091" stop-color="#f7ca2e" stop-opacity="0.129"/>
      <stop offset="0.283" stop-color="#f7ca2e" stop-opacity="0.388"/>
      <stop offset="0.465" stop-color="#f7ca2e" stop-opacity="0.612"/>
      <stop offset="0.633" stop-color="#f7ca2e" stop-opacity="0.78"/>
      <stop offset="0.784" stop-color="#f7ca2e" stop-opacity="0.902"/>
      <stop offset="0.911" stop-color="#f7ca2e" stop-opacity="0.969"/>
      <stop offset="1" stop-color="#f7ca2e"/>
    </linearGradient>
    <linearGradient id="linear-gradient-2" x1="0.5" x2="0.5" y2="1" gradientUnits="objectBoundingBox">
      <stop offset="0" stop-color="#b13e8d" stop-opacity="0"/>
      <stop offset="0.091" stop-color="#b13e8d" stop-opacity="0.129"/>
      <stop offset="0.283" stop-color="#b13e8d" stop-opacity="0.388"/>
      <stop offset="0.465" stop-color="#b13e8d" stop-opacity="0.612"/>
      <stop offset="0.633" stop-color="#b13e8d" stop-opacity="0.78"/>
      <stop offset="0.784" stop-color="#b13e8d"/>
      <stop offset="0.911" stop-color="#b13e8d" stop-opacity="0.969"/>
      <stop offset="1" stop-color="#b13e8d"/>
    </linearGradient>
    <filter id="Rectángulo_40720" x="11.5" y="4" width="108" height="108" filterUnits="userSpaceOnUse">
      <feOffset dy="3" input="SourceAlpha"/>
      <feGaussianBlur stdDeviation="3" result="blur"/>
      <feFlood flood-opacity="0.161"/>
      <feComposite operator="in" in2="blur"/>
      <feComposite in="SourceGraphic"/>
    </filter>
  </defs>
  <g id="Grupo_136755" data-name="Grupo 136755" transform="translate(-209.5 -1223)">
    <g id="Grupo_108405" data-name="Grupo 108405" transform="translate(209.5 1287)">
      <path id="Rectángulo_5242" data-name="Rectángulo 5242" d="M0,0H12a0,0,0,0,1,0,0V43.333a3,3,0,0,1-3,3H3a3,3,0,0,1-3-3V0A0,0,0,0,1,0,0Z" transform="translate(0 0)" fill="url(#linear-gradient)"/>
    </g>
    <g id="Grupo_108406" data-name="Grupo 108406" transform="translate(340 1275) rotate(180)">
      <path id="Rectángulo_5242-2" data-name="Rectángulo 5242" d="M0,0H12a0,0,0,0,1,0,0V49a3,3,0,0,1-3,3H3a3,3,0,0,1-3-3V0A0,0,0,0,1,0,0Z" transform="translate(0 0)" fill="url(#linear-gradient-2)"/>
    </g>
    <g id="Grupo_136283" data-name="Grupo 136283">
      <g transform="matrix(1, 0, 0, 1, 209.5, 1223)" filter="url(#Rectángulo_40720)">
        <path id="Rectángulo_40720-2" data-name="Rectángulo 40720" d="M10,0H80A10,10,0,0,1,90,10V90a0,0,0,0,1,0,0H10A10,10,0,0,1,0,80V10A10,10,0,0,1,10,0Z" transform="translate(20.5 10)" fill="#f6f6f6"/>
      </g>
      <g id="Layer_2" data-name="Layer 2" transform="translate(247.015 1250.185)">
        <g id="_1" data-name="1" transform="translate(-0.001 -0.01)">
          <path id="Trazado_194608" data-name="Trazado 194608" d="M18.657,55.973H16.325V47.811H8.163a2.332,2.332,0,0,1-2.332-2.332v-7.37l-5.1-2.041A1.173,1.173,0,0,1,.14,34.424L5.889,23.929a11.148,11.148,0,0,0,1.236-4.1A22.155,22.155,0,0,1,33.735.468a21.642,21.642,0,0,1,12.1,6.938,22.062,22.062,0,0,1,3.277,4.921l-2.1,1.014A19.473,19.473,0,0,0,33.268,2.754,19.823,19.823,0,0,0,9.445,20.011a13.352,13.352,0,0,1-1.516,5L2.822,34.343l3.871,1.551a2.332,2.332,0,0,1,1.469,2.216v7.37h8.163a2.332,2.332,0,0,1,2.332,2.332Z" transform="translate(0.001 0.01)" fill="#6836bf"/>
          <path id="Trazado_194609" data-name="Trazado 194609" d="M39.333,51.551H37V43.726A35.81,35.81,0,0,1,40.674,27.4c.128-.257.257-.513.373-.781l2.122.956c-.128.3-.268.583-.408.875a33.5,33.5,0,0,0-3.428,15.276Z" transform="translate(6.145 4.432)" fill="#6836bf"/>
          <rect id="Rectángulo_44232" data-name="Rectángulo 44232" width="4.664" height="2.332" transform="translate(51.308 21.001)" fill="#6836bf"/>
          <rect id="Rectángulo_44233" data-name="Rectángulo 44233" width="27.986" height="2.332" transform="translate(16.326 21.001)" fill="#6836bf"/>
          <rect id="Rectángulo_44234" data-name="Rectángulo 44234" width="17.491" height="2.332" transform="translate(38.481 30.329)" fill="#6836bf"/>
          <rect id="Rectángulo_44235" data-name="Rectángulo 44235" width="15.159" height="2.332" transform="translate(16.326 30.329)" fill="#6836bf"/>
          <rect id="Rectángulo_44236" data-name="Rectángulo 44236" width="25.654" height="2.332" transform="translate(30.319 11.672)" fill="#6836bf"/>
          <rect id="Rectángulo_44237" data-name="Rectángulo 44237" width="6.996" height="2.332" transform="translate(16.326 11.672)" fill="#6836bf"/>
          <path id="Trazado_194610" data-name="Trazado 194610" d="M23.664,16.329a4.664,4.664,0,1,1,4.664-4.664A4.664,4.664,0,0,1,23.664,16.329Zm0-7A2.332,2.332,0,1,0,26,11.664,2.332,2.332,0,0,0,23.664,9.332Z" transform="translate(3.156 1.174)" fill="#6836bf"/>
          <path id="Trazado_194611" data-name="Trazado 194611" d="M41.664,24.329a4.664,4.664,0,1,1,4.664-4.664A4.664,4.664,0,0,1,41.664,24.329Zm0-7A2.332,2.332,0,1,0,44,19.664,2.332,2.332,0,0,0,41.664,17.332Z" transform="translate(6.146 2.503)" fill="#6836bf"/>
          <path id="Trazado_194612" data-name="Trazado 194612" d="M30.664,32.329a4.664,4.664,0,1,1,4.664-4.664A4.664,4.664,0,0,1,30.664,32.329Zm0-7A2.332,2.332,0,1,0,33,27.664,2.332,2.332,0,0,0,30.664,25.332Z" transform="translate(4.319 3.831)" fill="#6836bf"/>
        </g>
      </g>
    </g>
  </g>
</svg>
