<svg xmlns="http://www.w3.org/2000/svg" xmlns:xlink="http://www.w3.org/1999/xlink" width="1030" height="600.93" viewBox="0 0 1030 600.93">
  <defs>
    <clipPath id="clip-path">
      <rect id="Rectángulo_43747" data-name="Rectángulo 43747" width="50" height="73.239" fill="none"/>
    </clipPath>
    <clipPath id="clip-path-2">
      <rect id="Rectángulo_43734" data-name="Rectángulo 43734" width="80" height="74.338" fill="none" stroke="#fff" stroke-width="1"/>
    </clipPath>
    <clipPath id="clip-path-3">
      <rect id="Rectángulo_41340" data-name="Rectángulo 41340" width="81" height="81" fill="none"/>
    </clipPath>
  </defs>
  <g id="Grupo_136768" data-name="Grupo 136768" transform="translate(-285 -3434)">
    <path id="BG" d="M20,0h990a20,20,0,0,1,20,20V580.93a20,20,0,0,1-20,20H20a20,20,0,0,1-20-20V20A20,20,0,0,1,20,0Z" transform="translate(285 3434)" fill="#f3f9ff" opacity="0.949"/>
    <path id="Trazado_195365" data-name="Trazado 195365" d="M10.266,17H7.922L3.359,9.516V17H1.016V5.625H3.359l4.57,7.5v-7.5h2.336Zm4.281,0H12.281V8.547h2.266Zm-2.4-10.641a1.112,1.112,0,0,1,.34-.836,1.465,1.465,0,0,1,1.848,0,1.105,1.105,0,0,1,.344.836,1.108,1.108,0,0,1-.348.844,1.448,1.448,0,0,1-1.836,0A1.108,1.108,0,0,1,12.148,6.359Zm7.422,7.883,1.57-5.7H23.5L20.648,17H18.492L15.641,8.547H18Zm8.813,2.914a4.15,4.15,0,0,1-3.027-1.141,4.054,4.054,0,0,1-1.168-3.039v-.219a5.106,5.106,0,0,1,.492-2.277,3.612,3.612,0,0,1,1.395-1.547,3.914,3.914,0,0,1,2.059-.543,3.508,3.508,0,0,1,2.73,1.094,4.444,4.444,0,0,1,1,3.1v.922H26.477a2.1,2.1,0,0,0,.66,1.328,2,2,0,0,0,1.395.5,2.437,2.437,0,0,0,2.039-.945l1.109,1.242A3.389,3.389,0,0,1,30.3,16.754,4.511,4.511,0,0,1,28.383,17.156Zm-.258-6.945a1.411,1.411,0,0,0-1.09.455,2.357,2.357,0,0,0-.535,1.3h3.141v-.181a1.681,1.681,0,0,0-.406-1.165A1.456,1.456,0,0,0,28.125,10.211ZM35.523,17H33.258V5h2.266Zm9.734.156a4.15,4.15,0,0,1-3.027-1.141,4.054,4.054,0,0,1-1.168-3.039v-.219a5.106,5.106,0,0,1,.492-2.277,3.612,3.612,0,0,1,1.395-1.547,3.914,3.914,0,0,1,2.059-.543,3.508,3.508,0,0,1,2.73,1.094,4.444,4.444,0,0,1,1,3.1v.922H43.352a2.1,2.1,0,0,0,.66,1.328,2,2,0,0,0,1.395.5,2.437,2.437,0,0,0,2.039-.945l1.109,1.242a3.389,3.389,0,0,1-1.375,1.121A4.511,4.511,0,0,1,45.258,17.156ZM45,10.211a1.411,1.411,0,0,0-1.09.455,2.357,2.357,0,0,0-.535,1.3h3.141v-.181a1.681,1.681,0,0,0-.406-1.165A1.456,1.456,0,0,0,45,10.211Zm9.594,4.453a.727.727,0,0,0-.41-.652,4.659,4.659,0,0,0-1.316-.426q-3.016-.633-3.016-2.562a2.323,2.323,0,0,1,.934-1.879,3.766,3.766,0,0,1,2.441-.754,4.053,4.053,0,0,1,2.574.758,2.388,2.388,0,0,1,.965,1.969H54.508a1.092,1.092,0,0,0-.312-.8A1.322,1.322,0,0,0,53.219,10a1.351,1.351,0,0,0-.883.258.814.814,0,0,0-.312.656.7.7,0,0,0,.355.605,3.657,3.657,0,0,0,1.2.4A9.8,9.8,0,0,1,55,12.3a2.336,2.336,0,0,1,1.789,2.273,2.2,2.2,0,0,1-.992,1.871,4.28,4.28,0,0,1-2.562.715,4.47,4.47,0,0,1-1.887-.379,3.166,3.166,0,0,1-1.293-1.039,2.414,2.414,0,0,1-.469-1.426h2.141a1.179,1.179,0,0,0,.445.922,1.766,1.766,0,0,0,1.109.32,1.635,1.635,0,0,0,.98-.246A.766.766,0,0,0,54.594,14.664Zm6.352-8.2V8.547h1.445V10.2H60.945v4.219a1.007,1.007,0,0,0,.18.672.9.9,0,0,0,.688.2,3.6,3.6,0,0,0,.664-.055v1.711a4.648,4.648,0,0,1-1.367.2,2.156,2.156,0,0,1-2.422-2.4V10.2H57.453V8.547h1.234V6.469Zm7.453,4.2a6.134,6.134,0,0,0-.812-.062,1.654,1.654,0,0,0-1.68.867V17H63.648V8.547h2.133l.063,1.008a2.092,2.092,0,0,1,1.883-1.164,2.366,2.366,0,0,1,.7.1ZM74.148,17a2.507,2.507,0,0,1-.227-.758,2.732,2.732,0,0,1-2.133.914,3,3,0,0,1-2.059-.719,2.312,2.312,0,0,1-.816-1.812,2.389,2.389,0,0,1,1-2.062,4.915,4.915,0,0,1,2.879-.727h1.039v-.484a1.393,1.393,0,0,0-.3-.937,1.183,1.183,0,0,0-.949-.352,1.345,1.345,0,0,0-.895.273.929.929,0,0,0-.324.75H69.1a2.268,2.268,0,0,1,.453-1.359,3,3,0,0,1,1.281-.98A4.669,4.669,0,0,1,72.7,8.391a3.689,3.689,0,0,1,2.48.785,2.747,2.747,0,0,1,.918,2.207v3.664a4.041,4.041,0,0,0,.336,1.82V17Zm-1.867-1.57a1.945,1.945,0,0,0,.922-.223,1.462,1.462,0,0,0,.625-.6V13.156h-.844q-1.7,0-1.8,1.172l-.008.133a.9.9,0,0,0,.3.7A1.153,1.153,0,0,0,72.281,15.43Zm8.25-8.961V8.547h1.445V10.2H80.531v4.219a1.007,1.007,0,0,0,.18.672.9.9,0,0,0,.688.2,3.6,3.6,0,0,0,.664-.055v1.711a4.648,4.648,0,0,1-1.367.2,2.156,2.156,0,0,1-2.422-2.4V10.2H77.039V8.547h1.234V6.469Zm6.594,10.688A4.15,4.15,0,0,1,84.1,16.016a4.054,4.054,0,0,1-1.168-3.039v-.219a5.106,5.106,0,0,1,.492-2.277,3.612,3.612,0,0,1,1.395-1.547,3.914,3.914,0,0,1,2.059-.543,3.508,3.508,0,0,1,2.73,1.094,4.444,4.444,0,0,1,1,3.1v.922H85.219a2.1,2.1,0,0,0,.66,1.328,2,2,0,0,0,1.395.5,2.437,2.437,0,0,0,2.039-.945l1.109,1.242a3.389,3.389,0,0,1-1.375,1.121A4.511,4.511,0,0,1,87.125,17.156Zm-.258-6.945a1.411,1.411,0,0,0-1.09.455,2.357,2.357,0,0,0-.535,1.3h3.141v-.181a1.681,1.681,0,0,0-.406-1.165A1.456,1.456,0,0,0,86.867,10.211ZM87.07,5h2.461L87.367,7.422H85.531Zm4.484,7.711a4.954,4.954,0,0,1,.926-3.133,3,3,0,0,1,2.5-1.187,2.631,2.631,0,0,1,2.164.953l.094-.8h2.047v8.172a3.613,3.613,0,0,1-.5,1.93,3.236,3.236,0,0,1-1.418,1.25,4.985,4.985,0,0,1-2.141.43,4.635,4.635,0,0,1-1.812-.371A3.217,3.217,0,0,1,92.07,19l1-1.375a2.645,2.645,0,0,0,2.047.945,1.936,1.936,0,0,0,1.4-.48,1.8,1.8,0,0,0,.5-1.363v-.453a2.612,2.612,0,0,1-2.055.883A2.992,2.992,0,0,1,92.5,15.965a4.953,4.953,0,0,1-.941-3.16Zm2.258.168a3.085,3.085,0,0,0,.461,1.8,1.466,1.466,0,0,0,1.266.653,1.568,1.568,0,0,0,1.477-.775V11a1.564,1.564,0,0,0-1.461-.775,1.476,1.476,0,0,0-1.277.665A3.477,3.477,0,0,0,93.813,12.879ZM103.4,17h-2.266V8.547H103.4ZM101,6.359a1.112,1.112,0,0,1,.34-.836,1.465,1.465,0,0,1,1.848,0,1.105,1.105,0,0,1,.344.836,1.108,1.108,0,0,1-.348.844,1.448,1.448,0,0,1-1.836,0A1.108,1.108,0,0,1,101,6.359Zm7.773,8.977a1.481,1.481,0,0,0,1.016-.344,1.2,1.2,0,0,0,.406-.914h2.117a2.9,2.9,0,0,1-.469,1.574,3.093,3.093,0,0,1-1.262,1.109,3.949,3.949,0,0,1-1.77.395A3.67,3.67,0,0,1,105.953,16a4.56,4.56,0,0,1-1.047-3.184v-.148a4.508,4.508,0,0,1,1.039-3.117A3.627,3.627,0,0,1,108.8,8.391a3.555,3.555,0,0,1,2.543.9,3.2,3.2,0,0,1,.973,2.4H110.2a1.551,1.551,0,0,0-.406-1.072,1.51,1.51,0,0,0-2.223.163,3.333,3.333,0,0,0-.4,1.866v.235a3.375,3.375,0,0,0,.4,1.878A1.377,1.377,0,0,0,108.773,15.336ZM113.25,12.7a5.013,5.013,0,0,1,.484-2.242,3.546,3.546,0,0,1,1.395-1.523,4.069,4.069,0,0,1,2.113-.539,3.849,3.849,0,0,1,2.793,1.047,4.2,4.2,0,0,1,1.207,2.844l.016.578a4.418,4.418,0,0,1-1.086,3.121,4.209,4.209,0,0,1-5.832,0,4.5,4.5,0,0,1-1.09-3.187Zm2.258.16a3.16,3.16,0,0,0,.453,1.843,1.628,1.628,0,0,0,2.578.008A3.457,3.457,0,0,0,119,12.691a3.128,3.128,0,0,0-.461-1.831,1.5,1.5,0,0,0-1.3-.649,1.474,1.474,0,0,0-1.281.646A3.516,3.516,0,0,0,115.508,12.856Z" transform="translate(978 3499)" fill="#12263f"/>
    <path id="Trazado_195363" data-name="Trazado 195363" d="M10.266,17H7.922L3.359,9.516V17H1.016V5.625H3.359l4.57,7.5v-7.5h2.336Zm4.281,0H12.281V8.547h2.266Zm-2.4-10.641a1.112,1.112,0,0,1,.34-.836,1.465,1.465,0,0,1,1.848,0,1.105,1.105,0,0,1,.344.836,1.108,1.108,0,0,1-.348.844,1.448,1.448,0,0,1-1.836,0A1.108,1.108,0,0,1,12.148,6.359Zm7.422,7.883,1.57-5.7H23.5L20.648,17H18.492L15.641,8.547H18Zm8.813,2.914a4.15,4.15,0,0,1-3.027-1.141,4.054,4.054,0,0,1-1.168-3.039v-.219a5.106,5.106,0,0,1,.492-2.277,3.612,3.612,0,0,1,1.395-1.547,3.914,3.914,0,0,1,2.059-.543,3.508,3.508,0,0,1,2.73,1.094,4.444,4.444,0,0,1,1,3.1v.922H26.477a2.1,2.1,0,0,0,.66,1.328,2,2,0,0,0,1.395.5,2.437,2.437,0,0,0,2.039-.945l1.109,1.242A3.389,3.389,0,0,1,30.3,16.754,4.511,4.511,0,0,1,28.383,17.156Zm-.258-6.945a1.411,1.411,0,0,0-1.09.455,2.357,2.357,0,0,0-.535,1.3h3.141v-.181a1.681,1.681,0,0,0-.406-1.165A1.456,1.456,0,0,0,28.125,10.211ZM35.523,17H33.258V5h2.266ZM44.07,6.469V8.547h1.445V10.2H44.07v4.219a1.007,1.007,0,0,0,.18.672.9.9,0,0,0,.688.2,3.6,3.6,0,0,0,.664-.055v1.711a4.648,4.648,0,0,1-1.367.2,2.156,2.156,0,0,1-2.422-2.4V10.2H40.578V8.547h1.234V6.469ZM51.672,17a2.507,2.507,0,0,1-.227-.758,2.732,2.732,0,0,1-2.133.914,3,3,0,0,1-2.059-.719,2.312,2.312,0,0,1-.816-1.812,2.389,2.389,0,0,1,1-2.062,4.915,4.915,0,0,1,2.879-.727h1.039v-.484a1.393,1.393,0,0,0-.3-.937,1.183,1.183,0,0,0-.949-.352,1.345,1.345,0,0,0-.895.273.929.929,0,0,0-.324.75H46.625a2.268,2.268,0,0,1,.453-1.359,3,3,0,0,1,1.281-.98,4.669,4.669,0,0,1,1.859-.355,3.689,3.689,0,0,1,2.48.785,2.747,2.747,0,0,1,.918,2.207v3.664a4.041,4.041,0,0,0,.336,1.82V17ZM49.8,15.43a1.945,1.945,0,0,0,.922-.223,1.462,1.462,0,0,0,.625-.6V13.156h-.844q-1.7,0-1.8,1.172l-.008.133a.9.9,0,0,0,.3.7A1.153,1.153,0,0,0,49.8,15.43ZM50.664,5h2.461L50.961,7.422H49.125Zm8.2,10.336a1.481,1.481,0,0,0,1.016-.344,1.2,1.2,0,0,0,.406-.914h2.117a2.9,2.9,0,0,1-.469,1.574,3.093,3.093,0,0,1-1.262,1.109,3.949,3.949,0,0,1-1.77.395A3.67,3.67,0,0,1,56.047,16,4.56,4.56,0,0,1,55,12.82v-.148a4.508,4.508,0,0,1,1.039-3.117,3.627,3.627,0,0,1,2.852-1.164,3.555,3.555,0,0,1,2.543.9,3.2,3.2,0,0,1,.973,2.4H60.289a1.551,1.551,0,0,0-.406-1.072,1.51,1.51,0,0,0-2.223.163,3.333,3.333,0,0,0-.4,1.866v.235a3.375,3.375,0,0,0,.4,1.878A1.377,1.377,0,0,0,58.867,15.336ZM66.4,6.469V8.547h1.445V10.2H66.4v4.219a1.007,1.007,0,0,0,.18.672.9.9,0,0,0,.688.2,3.6,3.6,0,0,0,.664-.055v1.711a4.648,4.648,0,0,1-1.367.2,2.156,2.156,0,0,1-2.422-2.4V10.2H62.906V8.547h1.234V6.469ZM71.484,17H69.219V8.547h2.266Zm-2.4-10.641a1.112,1.112,0,0,1,.34-.836,1.465,1.465,0,0,1,1.848,0,1.105,1.105,0,0,1,.344.836,1.108,1.108,0,0,1-.348.844,1.448,1.448,0,0,1-1.836,0A1.108,1.108,0,0,1,69.086,6.359Zm7.773,8.977a1.481,1.481,0,0,0,1.016-.344,1.2,1.2,0,0,0,.406-.914H80.4a2.9,2.9,0,0,1-.469,1.574,3.093,3.093,0,0,1-1.262,1.109,3.949,3.949,0,0,1-1.77.395A3.67,3.67,0,0,1,74.039,16a4.56,4.56,0,0,1-1.047-3.184v-.148a4.508,4.508,0,0,1,1.039-3.117,3.627,3.627,0,0,1,2.852-1.164,3.555,3.555,0,0,1,2.543.9,3.2,3.2,0,0,1,.973,2.4H78.281a1.551,1.551,0,0,0-.406-1.072,1.51,1.51,0,0,0-2.223.163,3.333,3.333,0,0,0-.4,1.866v.235a3.375,3.375,0,0,0,.4,1.878A1.377,1.377,0,0,0,76.859,15.336ZM81.336,12.7a5.013,5.013,0,0,1,.484-2.242A3.546,3.546,0,0,1,83.215,8.93a4.069,4.069,0,0,1,2.113-.539,3.849,3.849,0,0,1,2.793,1.047,4.2,4.2,0,0,1,1.207,2.844l.016.578a4.418,4.418,0,0,1-1.086,3.121,4.209,4.209,0,0,1-5.832,0,4.5,4.5,0,0,1-1.09-3.187Zm2.258.16a3.16,3.16,0,0,0,.453,1.843,1.628,1.628,0,0,0,2.578.008,3.457,3.457,0,0,0,.461-2.015,3.128,3.128,0,0,0-.461-1.831,1.5,1.5,0,0,0-1.3-.649,1.474,1.474,0,0,0-1.281.646A3.516,3.516,0,0,0,83.594,12.856Z" transform="translate(1034 3676)" fill="#12263f"/>
    <path id="Trazado_195361" data-name="Trazado 195361" d="M10.266,17H7.922L3.359,9.516V17H1.016V5.625H3.359l4.57,7.5v-7.5h2.336Zm4.281,0H12.281V8.547h2.266Zm-2.4-10.641a1.112,1.112,0,0,1,.34-.836,1.465,1.465,0,0,1,1.848,0,1.105,1.105,0,0,1,.344.836,1.108,1.108,0,0,1-.348.844,1.448,1.448,0,0,1-1.836,0A1.108,1.108,0,0,1,12.148,6.359Zm7.422,7.883,1.57-5.7H23.5L20.648,17H18.492L15.641,8.547H18Zm8.813,2.914a4.15,4.15,0,0,1-3.027-1.141,4.054,4.054,0,0,1-1.168-3.039v-.219a5.106,5.106,0,0,1,.492-2.277,3.612,3.612,0,0,1,1.395-1.547,3.914,3.914,0,0,1,2.059-.543,3.508,3.508,0,0,1,2.73,1.094,4.444,4.444,0,0,1,1,3.1v.922H26.477a2.1,2.1,0,0,0,.66,1.328,2,2,0,0,0,1.395.5,2.437,2.437,0,0,0,2.039-.945l1.109,1.242A3.389,3.389,0,0,1,30.3,16.754,4.511,4.511,0,0,1,28.383,17.156Zm-.258-6.945a1.411,1.411,0,0,0-1.09.455,2.357,2.357,0,0,0-.535,1.3h3.141v-.181a1.681,1.681,0,0,0-.406-1.165A1.456,1.456,0,0,0,28.125,10.211ZM35.523,17H33.258V5h2.266Zm5.492-4.3a5.013,5.013,0,0,1,.484-2.242A3.546,3.546,0,0,1,42.895,8.93a4.069,4.069,0,0,1,2.113-.539A3.849,3.849,0,0,1,47.8,9.438a4.2,4.2,0,0,1,1.207,2.844l.016.578a4.418,4.418,0,0,1-1.086,3.121,4.209,4.209,0,0,1-5.832,0,4.5,4.5,0,0,1-1.09-3.187Zm2.258.16a3.16,3.16,0,0,0,.453,1.843,1.628,1.628,0,0,0,2.578.008,3.457,3.457,0,0,0,.461-2.015A3.128,3.128,0,0,0,46.3,10.86a1.5,1.5,0,0,0-1.3-.649,1.474,1.474,0,0,0-1.281.646A3.516,3.516,0,0,0,43.273,12.856Zm14.75,0a5.07,5.07,0,0,1-.887,3.129,2.843,2.843,0,0,1-2.395,1.176,2.633,2.633,0,0,1-2.07-.891V20.25H50.414V8.547h2.094l.078.828a2.654,2.654,0,0,1,2.141-.984,2.862,2.862,0,0,1,2.43,1.156,5.207,5.207,0,0,1,.867,3.188Zm-2.258-.164a3.327,3.327,0,0,0-.418-1.82,1.361,1.361,0,0,0-1.215-.641,1.479,1.479,0,0,0-1.461.813V14.5a1.5,1.5,0,0,0,1.477.836Q55.766,15.336,55.766,12.688Zm7.547,4.469a4.15,4.15,0,0,1-3.027-1.141,4.054,4.054,0,0,1-1.168-3.039v-.219a5.106,5.106,0,0,1,.492-2.277A3.612,3.612,0,0,1,61,8.934a3.914,3.914,0,0,1,2.059-.543,3.508,3.508,0,0,1,2.73,1.094,4.444,4.444,0,0,1,1,3.1v.922H61.406a2.1,2.1,0,0,0,.66,1.328,2,2,0,0,0,1.395.5,2.437,2.437,0,0,0,2.039-.945l1.109,1.242a3.389,3.389,0,0,1-1.375,1.121A4.511,4.511,0,0,1,63.313,17.156Zm-.258-6.945a1.411,1.411,0,0,0-1.09.455,2.357,2.357,0,0,0-.535,1.3H64.57v-.181a1.681,1.681,0,0,0-.406-1.165A1.456,1.456,0,0,0,63.055,10.211Zm9.766.453a6.134,6.134,0,0,0-.812-.062,1.654,1.654,0,0,0-1.68.867V17H68.07V8.547H70.2l.063,1.008a2.092,2.092,0,0,1,1.883-1.164,2.366,2.366,0,0,1,.7.1ZM78.57,17a2.507,2.507,0,0,1-.227-.758,2.732,2.732,0,0,1-2.133.914,3,3,0,0,1-2.059-.719,2.312,2.312,0,0,1-.816-1.812,2.389,2.389,0,0,1,1-2.062,4.915,4.915,0,0,1,2.879-.727H78.25v-.484a1.393,1.393,0,0,0-.3-.937A1.183,1.183,0,0,0,77,10.063a1.345,1.345,0,0,0-.895.273.929.929,0,0,0-.324.75H73.523a2.268,2.268,0,0,1,.453-1.359,3,3,0,0,1,1.281-.98,4.669,4.669,0,0,1,1.859-.355,3.689,3.689,0,0,1,2.48.785,2.747,2.747,0,0,1,.918,2.207v3.664a4.041,4.041,0,0,0,.336,1.82V17ZM76.7,15.43a1.945,1.945,0,0,0,.922-.223,1.462,1.462,0,0,0,.625-.6V13.156h-.844q-1.7,0-1.8,1.172l-.008.133a.9.9,0,0,0,.3.7A1.153,1.153,0,0,0,76.7,15.43Zm8.25-8.961V8.547H86.4V10.2H84.953v4.219a1.007,1.007,0,0,0,.18.672.9.9,0,0,0,.688.2,3.6,3.6,0,0,0,.664-.055v1.711a4.648,4.648,0,0,1-1.367.2,2.156,2.156,0,0,1-2.422-2.4V10.2H81.461V8.547H82.7V6.469ZM90.039,17H87.773V8.547h2.266Zm-2.4-10.641a1.112,1.112,0,0,1,.34-.836,1.465,1.465,0,0,1,1.848,0,1.105,1.105,0,0,1,.344.836,1.108,1.108,0,0,1-.348.844,1.448,1.448,0,0,1-1.836,0A1.108,1.108,0,0,1,87.641,6.359Zm7.422,7.883,1.57-5.7h2.359L96.141,17H93.984L91.133,8.547h2.359ZM99.516,12.7A5.013,5.013,0,0,1,100,10.453a3.546,3.546,0,0,1,1.395-1.523,4.069,4.069,0,0,1,2.113-.539A3.849,3.849,0,0,1,106.3,9.438a4.2,4.2,0,0,1,1.207,2.844l.016.578a4.418,4.418,0,0,1-1.086,3.121,4.209,4.209,0,0,1-5.832,0,4.5,4.5,0,0,1-1.09-3.187Zm2.258.16a3.16,3.16,0,0,0,.453,1.843,1.628,1.628,0,0,0,2.578.008,3.457,3.457,0,0,0,.461-2.015,3.128,3.128,0,0,0-.461-1.831,1.5,1.5,0,0,0-1.3-.649,1.474,1.474,0,0,0-1.281.646A3.516,3.516,0,0,0,101.773,12.856Z" transform="translate(1075 3847)" fill="#12263f"/>
    <g id="Recurso_1" data-name="Recurso 1" transform="translate(488.287 3453.856)">
      <g id="Capa_2" data-name="Capa 2">
        <g id="Layer_1" data-name="Layer 1">
          <g id="Grupo_136282" data-name="Grupo 136282">
            <g id="Pyramid" transform="translate(25.713)">
              <g id="Grupo_136275" data-name="Grupo 136275" transform="translate(196.572)">
                <path id="Trazado_194137" data-name="Trazado 194137" d="M278.1,155.654,188.238,0,98.38,155.654Z" transform="translate(-98.38)" fill="#6a47af"/>
                <path id="Trazado_194138" data-name="Trazado 194138" d="M98.38,68.89l18.053,29.17,16.856-29.17Z" transform="translate(-98.38 86.764)" fill="#6a47af"/>
                <path id="Trazado_194139" data-name="Trazado 194139" d="M197.379,68.89,179.326,98.06,162.47,68.89Z" transform="translate(-17.662 86.764)" fill="#6a47af"/>
              </g>
              <g id="Grupo_136276" data-name="Grupo 136276" transform="translate(98.286 184.823)">
                <path id="Trazado_194140" data-name="Trazado 194140" d="M136.311,81.8,54.88,222.858H431.169L349.739,81.8Z" transform="translate(-54.88 -81.8)" fill="#ae4688"/>
                <path id="Trazado_194141" data-name="Trazado 194141" d="M54.88,144.23,72.933,173.4l16.856-29.17Z" transform="translate(-54.88 -3.172)" fill="#ae4688"/>
                <path id="Trazado_194142" data-name="Trazado 194142" d="M240.879,144.23,222.826,173.4,205.97,144.23Z" transform="translate(135.411 -3.172)" fill="#ae4688"/>
              </g>
              <g id="Grupo_136277" data-name="Grupo 136277" transform="translate(0 355.051)">
                <path id="Trazado_194143" data-name="Trazado 194143" d="M584.242,298.22,502.811,157.14h-410L11.38,298.22Z" transform="translate(-11.38 -157.14)" fill="#693fb7"/>
                <path id="Trazado_194144" data-name="Trazado 194144" d="M11.38,219.58l18.053,29.17,16.856-29.17Z" transform="translate(-11.38 -78.5)" fill="#693fb7"/>
                <path id="Trazado_194145" data-name="Trazado 194145" d="M284.379,219.58l-18.053,29.17L249.47,219.58Z" transform="translate(288.483 -78.5)" fill="#693fb7"/>
              </g>
            </g>
          </g>
        </g>
      </g>
    </g>
    <g id="Grupo_136285" data-name="Grupo 136285" transform="translate(565.431 -1834.75)">
      <g id="Grupo_136552" data-name="Grupo 136552" transform="translate(210 5352)">
        <g id="Grupo_136551" data-name="Grupo 136551" clip-path="url(#clip-path)">
          <path id="Trazado_193686" data-name="Trazado 193686" d="M29.393,56.03c-1.243,0-2.706-.006-4.428-.013-5.043-.02-10.085-.061-10.085-.061a1.463,1.463,0,0,1-.2-.016c-2.388-.372-3.728-1.833-3.675-4.008.086-3.61-1.231-6.895-4.406-10.982C3.683,37.19.892,32.97.191,27.591A24.25,24.25,0,0,1,7.066,7.648,23.973,23.973,0,0,1,26.525.1C39.438,1.285,48.38,9.976,49.862,22.78c.644,5.557-.982,10.936-4.833,15.985l-.663.865c-2.293,2.981-4.458,5.8-5.084,9.4l-.089.491a8.565,8.565,0,0,0-.215,1.917,3.916,3.916,0,0,1-3.74,4.509l-.015-.1a47.2,47.2,0,0,1-5.83.189M15.01,53.174c7.088.056,18.464.111,19.768.027.031-.006.062-.012.094-.015,1.106-.147,1.391-.489,1.326-1.59a10.828,10.828,0,0,1,.257-2.582l.084-.463c.744-4.277,3.223-7.5,5.62-10.617l.656-.855c3.448-4.52,4.848-9.093,4.283-13.978C45.756,11.508,37.97,3.944,26.27,2.868A21.244,21.244,0,0,0,9.071,9.58,21.48,21.48,0,0,0,2.951,27.232c.581,4.458,2.756,8.026,5.843,12.013,2.391,3.078,5.12,7.31,4.989,12.755-.011.449-.023.956,1.226,1.174" transform="translate(0 0)" fill="#fff"/>
          <path id="Trazado_193687" data-name="Trazado 193687" d="M50.464,142.072H35.28a3.914,3.914,0,0,1-3.911-3.909V126.8h2.784v11.363a1.128,1.128,0,0,0,1.127,1.126H50.464a1.127,1.127,0,0,0,1.126-1.126V126.8h2.783v11.363a3.914,3.914,0,0,1-3.909,3.909" transform="translate(-17.87 -72.234)" fill="#fff"/>
          <rect id="Rectángulo_43745" data-name="Rectángulo 43745" width="19.314" height="2.783" transform="translate(15.817 62.448)" fill="#fff"/>
          <rect id="Rectángulo_43746" data-name="Rectángulo 43746" width="19.314" height="2.783" transform="translate(15.817 57.78)" fill="#fff"/>
          <path id="Trazado_193688" data-name="Trazado 193688" d="M53.8,163.849H47.355a2.427,2.427,0,0,1-2.46-2.385v-2.408h2.783v2.01h5.8v-2.01h2.783v2.408a2.426,2.426,0,0,1-2.461,2.385" transform="translate(-25.576 -90.61)" fill="#fff"/>
          <path id="Trazado_193689" data-name="Trazado 193689" d="M35.584,49.733a5.2,5.2,0,0,1-5.13-4.394,6.621,6.621,0,0,1-4.2-11.173,6.621,6.621,0,0,1,4.187-11.172,5.192,5.192,0,0,1,10.334.715V44.541a5.2,5.2,0,0,1-5.191,5.191M31.839,42.5a1.4,1.4,0,0,1,1.383,1.624,2.4,2.4,0,1,0,4.77.413V23.708a2.408,2.408,0,0,0-4.816,0,2.449,2.449,0,0,0,.048.466,1.392,1.392,0,0,1-1.581,1.639,3.736,3.736,0,0,0-.584-.065,3.843,3.843,0,0,0-1.879,7.2,1.391,1.391,0,0,1,0,2.424,3.843,3.843,0,0,0,1.879,7.2,3.683,3.683,0,0,0,.568-.062,1.391,1.391,0,0,1,.211-.015" transform="translate(-13.91 -10.549)" fill="#fff"/>
          <path id="Trazado_193690" data-name="Trazado 193690" d="M42.565,34.906a3.846,3.846,0,0,1-3.93-2.772l2.645-.87c.257.787.672.9,1.435.855.1-.006.177-.009.235-.009l.016,2.783c-.138.008-.272.013-.4.013" transform="translate(-22.009 -17.811)" fill="#fff"/>
          <path id="Trazado_193691" data-name="Trazado 193691" d="M37.806,53.178a1.175,1.175,0,0,0-.712-.7c-1.07-.38-2.863.342-3.408.624L32.4,50.634c.323-.169,3.213-1.625,5.61-.786a3.95,3.95,0,0,1,2.342,2.2Z" transform="translate(-18.457 -28.25)" fill="#fff"/>
          <path id="Trazado_193692" data-name="Trazado 193692" d="M42.945,68.375c-.044-.3-.161-.821-.446-.979a2,2,0,0,0-1.416.128l-1.161-2.529a4.712,4.712,0,0,1,3.894-.049A3.822,3.822,0,0,1,45.7,67.967Z" transform="translate(-22.743 -36.76)" fill="#fff"/>
          <path id="Trazado_193693" data-name="Trazado 193693" d="M43.225,44.933a7.932,7.932,0,0,1-4.2-1.428l1.616-2.267a4.409,4.409,0,0,0,3.211.823l.807,2.664a4.94,4.94,0,0,1-1.437.208" transform="translate(-22.233 -23.492)" fill="#fff"/>
          <path id="Trazado_193694" data-name="Trazado 193694" d="M61.154,49.734a5.2,5.2,0,0,1-5.191-5.191h2.783a2.409,2.409,0,1,0,4.771-.409,1.392,1.392,0,0,1,1.58-1.614,3.833,3.833,0,0,0,2.461-7.14,1.392,1.392,0,0,1,0-2.424,3.843,3.843,0,0,0-1.879-7.205,3.782,3.782,0,0,0-.584.065,1.392,1.392,0,0,1-1.58-1.642,2.407,2.407,0,1,0-4.768-.462H55.963A5.191,5.191,0,0,1,66.3,22.994a6.621,6.621,0,0,1,4.187,11.172,6.621,6.621,0,0,1-4.2,11.173,5.2,5.2,0,0,1-5.13,4.394" transform="translate(-31.881 -10.549)" fill="#fff"/>
          <path id="Trazado_193695" data-name="Trazado 193695" d="M70.174,34.91c-.124,0-.251,0-.383-.012l-.06-2.788c.058,0,.137,0,.235.009.764.049,1.177-.068,1.435-.854l2.645.868a3.824,3.824,0,0,1-3.872,2.776" transform="translate(-39.724 -17.811)" fill="#fff"/>
          <path id="Trazado_193696" data-name="Trazado 193696" d="M70.061,53.178l-2.545-1.125a3.952,3.952,0,0,1,2.342-2.2c2.4-.839,5.287.617,5.61.786L74.177,53.1l.645-1.233L74.181,53.1c-.545-.281-2.338-1-3.408-.624a1.173,1.173,0,0,0-.711.7" transform="translate(-38.462 -28.25)" fill="#fff"/>
          <path id="Trazado_193697" data-name="Trazado 193697" d="M67.8,68.375l-2.754-.408a3.822,3.822,0,0,1,1.882-3.022,4.71,4.71,0,0,1,3.894.049l-1.17,2.525.585-1.263-.575,1.267A1.993,1.993,0,0,0,68.25,67.4c-.285.157-.4.681-.446.979" transform="translate(-37.057 -36.76)" fill="#fff"/>
          <path id="Trazado_193698" data-name="Trazado 193698" d="M67.711,44.933a4.935,4.935,0,0,1-1.436-.208l.807-2.664a4.423,4.423,0,0,0,3.211-.823L71.909,43.5a7.934,7.934,0,0,1-4.2,1.428" transform="translate(-37.755 -23.492)" fill="#fff"/>
        </g>
      </g>
    </g>
    <g id="Grupo_136286" data-name="Grupo 136286" transform="translate(6627.423 13474.081)">
      <g id="Grupo_136516" data-name="Grupo 136516" transform="translate(-5857.561 -9638)" style="isolation: isolate">
        <g id="Grupo_136515" data-name="Grupo 136515" clip-path="url(#clip-path-2)">
          <path id="Trazado_193616" data-name="Trazado 193616" d="M79.706,50.018c-.682-1.012-1.956-1.526-3.787-1.526h-26c-2.425,0-3.487,2.354-4.194,3.921-.476,1.055-5.389,13.533-8.428,21.269H26.879a4.656,4.656,0,0,0-1.912-4.888l-11.258-7.22V53.756a.845.845,0,0,0-1.69,0v8.28a.843.843,0,0,0,.389.711L24.032,70.2a2.947,2.947,0,0,1-2.757,5.169L5.643,69.149a3.872,3.872,0,0,1-2.452-3.6l0-13.688C3.192,45,7.685,40.3,16.186,38.224a12.782,12.782,0,0,0,17.92,0c4.905,1.193,8.484,3.244,10.633,6.1a.845.845,0,0,0,1.352-1.015c-2.26-3.008-5.869-5.194-10.73-6.512a12.811,12.811,0,1,0-20.428,0C6.141,39.185,1.5,44.369,1.5,51.86V65.55a5.553,5.553,0,0,0,3.517,5.169l9.622,3.83a4.6,4.6,0,0,0-1.924,3.736,4.719,4.719,0,0,0,4.6,4.709H64.888c1.563,0,3.695-.687,4.972-3.961.829-2.125,8.691-22.039,9.8-24.79.72-1.777.733-3.2.042-4.225m-54.56-32.06A11.121,11.121,0,1,1,14.025,29.079,11.133,11.133,0,0,1,25.146,17.958M78.1,53.609c-1.115,2.754-8.984,22.683-9.813,24.809-.757,1.942-1.868,2.886-3.4,2.886H17.319a3.007,3.007,0,0,1-2.913-3.019,2.916,2.916,0,0,1,2.416-2.868l3.829,1.524a4.573,4.573,0,0,0,1.694.323A4.673,4.673,0,0,0,26.1,75.372H37.877a.845.845,0,0,0,.787-.536c5.124-13.044,8.261-20.963,8.61-21.737.72-1.6,1.416-2.917,2.649-2.917h26c.848,0,1.95.135,2.385.78.447.663.135,1.805-.206,2.647" transform="translate(-0.858 -9.299)" fill="#fff" stroke="#fff" stroke-width="1"/>
          <path id="Trazado_193617" data-name="Trazado 193617" d="M79.706,50.018c-.682-1.012-1.956-1.526-3.787-1.526h-26c-2.425,0-3.487,2.354-4.194,3.921-.476,1.055-5.389,13.533-8.428,21.269H26.879a4.656,4.656,0,0,0-1.912-4.888l-11.258-7.22V53.756a.845.845,0,0,0-1.69,0v8.28a.843.843,0,0,0,.389.711L24.032,70.2a2.947,2.947,0,0,1-2.757,5.169L5.643,69.149a3.872,3.872,0,0,1-2.452-3.6l0-13.688C3.192,45,7.685,40.3,16.186,38.224a12.782,12.782,0,0,0,17.92,0c4.905,1.193,8.484,3.244,10.633,6.1a.845.845,0,0,0,1.352-1.015c-2.26-3.008-5.869-5.194-10.73-6.512a12.811,12.811,0,1,0-20.428,0C6.141,39.185,1.5,44.369,1.5,51.86V65.55a5.553,5.553,0,0,0,3.517,5.169l9.622,3.83a4.6,4.6,0,0,0-1.924,3.736,4.719,4.719,0,0,0,4.6,4.709H64.888c1.563,0,3.695-.687,4.972-3.961.829-2.125,8.691-22.039,9.8-24.79C80.384,52.467,80.4,51.045,79.706,50.018Zm-54.56-32.06A11.121,11.121,0,1,1,14.025,29.079,11.133,11.133,0,0,1,25.146,17.958ZM78.1,53.609c-1.115,2.754-8.984,22.683-9.813,24.809-.757,1.942-1.868,2.886-3.4,2.886H17.319a3.007,3.007,0,0,1-2.913-3.019,2.916,2.916,0,0,1,2.416-2.868l3.829,1.524a4.573,4.573,0,0,0,1.694.323A4.673,4.673,0,0,0,26.1,75.372H37.877a.845.845,0,0,0,.787-.536c5.124-13.044,8.261-20.963,8.61-21.737.72-1.6,1.416-2.917,2.649-2.917h26c.848,0,1.95.135,2.385.78C78.751,51.626,78.439,52.768,78.1,53.609Z" transform="translate(-0.858 -9.299)" fill="none" stroke="#fff" stroke-miterlimit="10" stroke-width="1"/>
          <path id="Trazado_193618" data-name="Trazado 193618" d="M70.73,97.458a.845.845,0,1,0,0,1.69h6.916a.845.845,0,1,0,0-1.69Z" transform="translate(-39.947 -55.707)" fill="#fff" stroke="#fff" stroke-width="1"/>
          <path id="Trazado_193619" data-name="Trazado 193619" d="M70.73,97.458a.845.845,0,1,0,0,1.69h6.916a.845.845,0,1,0,0-1.69Z" transform="translate(-39.947 -55.707)" fill="none" stroke="#fff" stroke-miterlimit="10" stroke-width="1"/>
          <path id="Trazado_193620" data-name="Trazado 193620" d="M78.8,3.191H93.449l-6.025,9.647A.845.845,0,0,0,87.694,14a.845.845,0,0,0,1.164-.269L95.442,3.191h8.438L93.846,19.258a.845.845,0,1,0,1.433.895L105.873,3.191h6.881V34.237a.845.845,0,0,0,1.69,0V2.346A.845.845,0,0,0,113.6,1.5H78.8a.845.845,0,1,0,0,1.69" transform="translate(-44.561 -0.858)" fill="#fff" stroke="#fff" stroke-width="1"/>
          <path id="Trazado_193621" data-name="Trazado 193621" d="M78.8,3.191H93.449l-6.025,9.647A.845.845,0,0,0,87.694,14a.845.845,0,0,0,1.164-.269L95.442,3.191h8.438L93.846,19.258a.845.845,0,1,0,1.433.895L105.873,3.191h6.881V34.237a.845.845,0,0,0,1.69,0V2.346A.845.845,0,0,0,113.6,1.5H78.8a.845.845,0,1,0,0,1.69Z" transform="translate(-44.561 -0.858)" fill="none" stroke="#fff" stroke-miterlimit="10" stroke-width="1"/>
        </g>
      </g>
    </g>
    <g id="Grupo_136553" data-name="Grupo 136553" transform="translate(769.862 3676)">
      <g id="Grupo_133522" data-name="Grupo 133522" transform="translate(-1 -6)" clip-path="url(#clip-path-3)">
        <path id="Trazado_190223" data-name="Trazado 190223" d="M74.709,56.642a5.865,5.865,0,0,0-2.781.922,3.372,3.372,0,0,1-1.657.6,1.27,1.27,0,0,1-.538-.225V49.775a5.013,5.013,0,0,0-1.571-3.641A5,5,0,0,0,69.734,42.5V34.337a1.275,1.275,0,0,1,.536-.225,3.376,3.376,0,0,1,1.658.6,5.861,5.861,0,0,0,2.781.923,5.948,5.948,0,0,0,4.37-1.7,6.294,6.294,0,0,0,0-9.054,5.965,5.965,0,0,0-4.37-1.7,5.861,5.861,0,0,0-2.781.922,3.372,3.372,0,0,1-1.657.6,1.271,1.271,0,0,1-.538-.225V16.308a5.049,5.049,0,0,0-5.049-5.036H60.447A1.325,1.325,0,0,1,60.2,10.7a3.365,3.365,0,0,1,.6-1.654,5.825,5.825,0,0,0,.925-2.773,5.944,5.944,0,0,0-1.705-4.359,6.331,6.331,0,0,0-9.077,0,5.943,5.943,0,0,0-1.7,4.359,5.83,5.83,0,0,0,.924,2.773,3.36,3.36,0,0,1,.6,1.652,1.319,1.319,0,0,1-.25.57H38.43A5.037,5.037,0,0,0,34.7,12.93,5.03,5.03,0,0,0,31.3,11.613H23.148a1.3,1.3,0,0,1-.249-.568,3.354,3.354,0,0,1,.6-1.654,5.82,5.82,0,0,0,.924-2.774,5.939,5.939,0,0,0-1.7-4.359,6.331,6.331,0,0,0-9.077,0,5.939,5.939,0,0,0-1.7,4.359,5.824,5.824,0,0,0,.924,2.774,3.361,3.361,0,0,1,.6,1.652,1.313,1.313,0,0,1-.25.57H5.05A5.049,5.049,0,0,0,0,16.65v8.527a1.482,1.482,0,0,0,.153.656A4.225,4.225,0,0,0,3.685,28a6.12,6.12,0,0,0,3.068-.973,3.138,3.138,0,0,1,1.425-.546,3.024,3.024,0,0,1,2.207.868,3.333,3.333,0,0,1,0,4.793,3.019,3.019,0,0,1-2.207.867,3.134,3.134,0,0,1-1.425-.546,6.131,6.131,0,0,0-3.068-.973H3.648A4.189,4.189,0,0,0,.154,33.655,1.479,1.479,0,0,0,0,34.311v8.527a5,5,0,0,0,1.4,3.468A5.009,5.009,0,0,0,0,49.775V58.3a1.481,1.481,0,0,0,.153.656,4.2,4.2,0,0,0,3.531,2.167,6.131,6.131,0,0,0,3.068-.973,3.134,3.134,0,0,1,1.425-.546,3.008,3.008,0,0,1,2.207.867,3.333,3.333,0,0,1,0,4.793,3.014,3.014,0,0,1-2.207.867,3.134,3.134,0,0,1-1.425-.546,6.12,6.12,0,0,0-3.068-.973H3.648A4.188,4.188,0,0,0,.154,66.781,1.481,1.481,0,0,0,0,67.437v8.527A5.048,5.048,0,0,0,5.05,81H31.3a5.039,5.039,0,0,0,3.563-1.471A5.04,5.04,0,0,0,38.43,81H64.684a5.048,5.048,0,0,0,5.049-5.036V67.8a1.264,1.264,0,0,1,.536-.225,3.372,3.372,0,0,1,1.658.6,5.86,5.86,0,0,0,2.781.922,5.97,5.97,0,0,0,4.37-1.7,6.293,6.293,0,0,0,0-9.053,5.963,5.963,0,0,0-4.37-1.7M38.43,14.237H51.076A1.49,1.49,0,0,0,51.883,14a4.19,4.19,0,0,0,1.845-3.336A6.1,6.1,0,0,0,52.752,7.6,3.11,3.11,0,0,1,52.2,6.181a3,3,0,0,1,.87-2.2,3.353,3.353,0,0,1,4.8,0,3,3,0,0,1,.87,2.2A3.119,3.119,0,0,1,58.2,7.6a6.081,6.081,0,0,0-.975,3.06A4.188,4.188,0,0,0,59.071,14a1.49,1.49,0,0,0,.806.238h4.806a2.076,2.076,0,0,1,2.076,2.071v8.755a1.476,1.476,0,0,0,.264.843,4.27,4.27,0,0,0,3.286,1.752,6.132,6.132,0,0,0,3.069-.973,3.137,3.137,0,0,1,1.425-.546,3.021,3.021,0,0,1,2.207.867,3.335,3.335,0,0,1,0,4.794,3.008,3.008,0,0,1-2.207.867,3.137,3.137,0,0,1-1.425-.546,6.124,6.124,0,0,0-3.069-.973h-.039A4.252,4.252,0,0,0,67.025,32.9a1.478,1.478,0,0,0-.264.843V42.5A2.652,2.652,0,0,1,64,44.739H60.447a1.321,1.321,0,0,1-.249-.568,3.363,3.363,0,0,1,.6-1.654,5.829,5.829,0,0,0,.925-2.774,5.943,5.943,0,0,0-1.705-4.359,6.331,6.331,0,0,0-9.077,0,5.943,5.943,0,0,0-1.7,4.359,5.833,5.833,0,0,0,.924,2.774,3.357,3.357,0,0,1,.6,1.652,1.314,1.314,0,0,1-.25.57H38.43a5.025,5.025,0,0,0-3,1,4.992,4.992,0,0,0,.925-2.9V34.679a1.266,1.266,0,0,1,.536-.225,3.372,3.372,0,0,1,1.658.6,5.863,5.863,0,0,0,2.781.922,5.966,5.966,0,0,0,4.371-1.7,6.293,6.293,0,0,0,0-9.053,5.978,5.978,0,0,0-4.371-1.7,5.861,5.861,0,0,0-2.781.923,3.376,3.376,0,0,1-1.656.6,1.273,1.273,0,0,1-.539-.226v-8.5a2.076,2.076,0,0,1,2.077-2.071M2.973,34.781a1.37,1.37,0,0,1,.67-.328,3.372,3.372,0,0,1,1.659.6,5.861,5.861,0,0,0,2.781.922,5.97,5.97,0,0,0,4.371-1.7,6.293,6.293,0,0,0,0-9.053,5.97,5.97,0,0,0-4.37-1.7,5.861,5.861,0,0,0-2.781.923,3.376,3.376,0,0,1-1.656.6,1.374,1.374,0,0,1-.673-.328V16.65A2.077,2.077,0,0,1,5.05,14.578h8.726a1.489,1.489,0,0,0,.807-.238A4.19,4.19,0,0,0,16.428,11a6.086,6.086,0,0,0-.975-3.061A3.127,3.127,0,0,1,14.9,6.522a3,3,0,0,1,.87-2.2,3.353,3.353,0,0,1,4.805,0,3,3,0,0,1,.87,2.2A3.113,3.113,0,0,1,20.9,7.944a6.092,6.092,0,0,0-.975,3.061,4.189,4.189,0,0,0,1.845,3.336,1.486,1.486,0,0,0,.806.238H31.3a2.076,2.076,0,0,1,2.076,2.072V25.4a1.479,1.479,0,0,0,.264.843A4.251,4.251,0,0,0,36.893,28h.038A6.123,6.123,0,0,0,40,27.026a3.137,3.137,0,0,1,1.425-.546,3.015,3.015,0,0,1,2.207.868,3.332,3.332,0,0,1,0,4.793,3.019,3.019,0,0,1-2.207.867A3.135,3.135,0,0,1,40,32.462a6.132,6.132,0,0,0-3.068-.973,4.27,4.27,0,0,0-3.286,1.752,1.48,1.48,0,0,0-.264.842v8.755c0,.9-.43,1.9-2.076,1.9H27.068a1.316,1.316,0,0,1-.249-.568,3.357,3.357,0,0,1,.6-1.655,5.825,5.825,0,0,0,.924-2.773,5.942,5.942,0,0,0-1.705-4.36,6.331,6.331,0,0,0-9.077,0,5.943,5.943,0,0,0-1.705,4.359,5.837,5.837,0,0,0,.925,2.774,3.357,3.357,0,0,1,.6,1.652,1.318,1.318,0,0,1-.25.57H5.05a1.825,1.825,0,0,1-2.077-1.9ZM31.3,78.035H5.05a2.077,2.077,0,0,1-2.077-2.072V67.907a1.369,1.369,0,0,1,.671-.328,3.372,3.372,0,0,1,1.658.6,5.857,5.857,0,0,0,2.781.922,5.972,5.972,0,0,0,4.37-1.7,6.293,6.293,0,0,0,0-9.053,5.963,5.963,0,0,0-4.371-1.7,5.861,5.861,0,0,0-2.781.922,3.372,3.372,0,0,1-1.657.6,1.372,1.372,0,0,1-.672-.328V49.775A2.077,2.077,0,0,1,5.05,47.7H17.7a1.493,1.493,0,0,0,.807-.237,4.188,4.188,0,0,0,1.845-3.336,6.088,6.088,0,0,0-.976-3.062,3.129,3.129,0,0,1-.548-1.422,3.006,3.006,0,0,1,.87-2.2,3.353,3.353,0,0,1,4.805,0,3,3,0,0,1,.869,2.2,3.108,3.108,0,0,1-.547,1.422,6.09,6.09,0,0,0-.975,3.061,4.19,4.19,0,0,0,1.845,3.336,1.492,1.492,0,0,0,.807.237H31.3a2.076,2.076,0,0,1,2.076,2.072V58.3a1.471,1.471,0,0,0,.154.656,4.216,4.216,0,0,0,3.53,2.167,6.134,6.134,0,0,0,3.069-.973,3.132,3.132,0,0,1,1.425-.546,3.005,3.005,0,0,1,2.206.867,3.333,3.333,0,0,1,0,4.793,3,3,0,0,1-2.206.867,3.131,3.131,0,0,1-1.425-.546,6.126,6.126,0,0,0-3.069-.973h-.037a4.187,4.187,0,0,0-3.494,2.166,1.471,1.471,0,0,0-.154.656v8.527A2.076,2.076,0,0,1,31.3,78.035M77.012,65.266a3.013,3.013,0,0,1-2.207.867,3.133,3.133,0,0,1-1.425-.546,6.124,6.124,0,0,0-3.069-.973h-.039a4.25,4.25,0,0,0-3.247,1.752,1.475,1.475,0,0,0-.264.842v8.755a2.076,2.076,0,0,1-2.076,2.072H38.43a2.077,2.077,0,0,1-2.077-2.072V67.907a1.371,1.371,0,0,1,.671-.328,3.373,3.373,0,0,1,1.658.6,5.86,5.86,0,0,0,2.78.922,5.942,5.942,0,0,0,4.37-1.7,6.292,6.292,0,0,0,0-9.053,5.955,5.955,0,0,0-4.37-1.7,5.863,5.863,0,0,0-2.781.922,3.37,3.37,0,0,1-1.657.6,1.372,1.372,0,0,1-.672-.328V49.775A2.077,2.077,0,0,1,38.43,47.7H51.076a1.489,1.489,0,0,0,.806-.237,4.189,4.189,0,0,0,1.845-3.336,6.1,6.1,0,0,0-.975-3.062,3.11,3.11,0,0,1-.548-1.422,3,3,0,0,1,.87-2.2,3.353,3.353,0,0,1,4.8,0,3,3,0,0,1,.87,2.2,3.119,3.119,0,0,1-.548,1.422,6.083,6.083,0,0,0-.975,3.061,4.186,4.186,0,0,0,1.845,3.336,1.489,1.489,0,0,0,.806.237h4.806a2.076,2.076,0,0,1,2.076,2.072V58.53a1.476,1.476,0,0,0,.264.843,4.28,4.28,0,0,0,3.286,1.752,6.13,6.13,0,0,0,3.068-.973,3.138,3.138,0,0,1,1.426-.546,3.012,3.012,0,0,1,2.207.867,3.334,3.334,0,0,1,0,4.794" transform="translate(-0.001)" fill="#fff"/>
      </g>
    </g>
    <path id="Trazado_195364" data-name="Trazado 195364" d="M0,0H311" transform="translate(876 3528)" fill="none" stroke="#3e2072" stroke-width="2"/>
    <g id="Grupo_136555" data-name="Grupo 136555" transform="translate(0.5 36)">
      <g id="Elipse_5483" data-name="Elipse 5483" transform="translate(1187 3484)" fill="#fff" stroke="#3e2072" stroke-width="2">
        <circle cx="8" cy="8" r="8" stroke="none"/>
        <circle cx="8" cy="8" r="7" fill="none"/>
      </g>
    </g>
    <path id="Trazado_195362" data-name="Trazado 195362" d="M0,0H213" transform="translate(973.5 3701)" fill="none" stroke="#3e2072" stroke-width="2"/>
    <g id="Grupo_136555-2" data-name="Grupo 136555" transform="translate(0 209)">
      <g id="Elipse_5483-2" data-name="Elipse 5483" transform="translate(1187 3484)" fill="#fff" stroke="#3e2072" stroke-width="2">
        <circle cx="8" cy="8" r="8" stroke="none"/>
        <circle cx="8" cy="8" r="7" fill="none"/>
      </g>
    </g>
    <path id="Trazado_195360" data-name="Trazado 195360" d="M0,0H120" transform="translate(1067 3874)" fill="none" stroke="#3e2072" stroke-width="2"/>
    <g id="Grupo_136555-3" data-name="Grupo 136555" transform="translate(0.5 382)">
      <g id="Elipse_5483-3" data-name="Elipse 5483" transform="translate(1187 3484)" fill="#fff" stroke="#3e2072" stroke-width="2">
        <circle cx="8" cy="8" r="8" stroke="none"/>
        <circle cx="8" cy="8" r="7" fill="none"/>
      </g>
    </g>
  </g>
</svg>
