<svg xmlns="http://www.w3.org/2000/svg" xmlns:xlink="http://www.w3.org/1999/xlink" width="190" height="112" viewBox="0 0 190 112">
  <defs>
    <linearGradient id="linear-gradient" x1="0.5" x2="0.5" y2="1" gradientUnits="objectBoundingBox">
      <stop offset="0" stop-color="#f7ca2e" stop-opacity="0"/>
      <stop offset="0.091" stop-color="#f7ca2e" stop-opacity="0.129"/>
      <stop offset="0.283" stop-color="#f7ca2e" stop-opacity="0.388"/>
      <stop offset="0.465" stop-color="#f7ca2e" stop-opacity="0.612"/>
      <stop offset="0.633" stop-color="#f7ca2e" stop-opacity="0.78"/>
      <stop offset="0.784" stop-color="#f7ca2e" stop-opacity="0.902"/>
      <stop offset="0.911" stop-color="#f7ca2e" stop-opacity="0.969"/>
      <stop offset="1" stop-color="#f7ca2e"/>
    </linearGradient>
    <linearGradient id="linear-gradient-2" x1="0.5" x2="0.5" y2="1" gradientUnits="objectBoundingBox">
      <stop offset="0" stop-color="#b13e8d" stop-opacity="0"/>
      <stop offset="0.091" stop-color="#b13e8d" stop-opacity="0.129"/>
      <stop offset="0.283" stop-color="#b13e8d" stop-opacity="0.388"/>
      <stop offset="0.465" stop-color="#b13e8d" stop-opacity="0.612"/>
      <stop offset="0.633" stop-color="#b13e8d" stop-opacity="0.78"/>
      <stop offset="0.784" stop-color="#b13e8d"/>
      <stop offset="0.911" stop-color="#b13e8d" stop-opacity="0.969"/>
      <stop offset="1" stop-color="#b13e8d"/>
    </linearGradient>
    <filter id="Rectángulo_40720" x="41" y="4" width="108" height="108" filterUnits="userSpaceOnUse">
      <feOffset dy="3" input="SourceAlpha"/>
      <feGaussianBlur stdDeviation="3" result="blur"/>
      <feFlood flood-opacity="0.161"/>
      <feComposite operator="in" in2="blur"/>
      <feComposite in="SourceGraphic"/>
    </filter>
  </defs>
  <g id="Grupo_136762" data-name="Grupo 136762" transform="translate(-180 -4071)">
    <rect id="Rectángulo_40586" data-name="Rectángulo 40586" width="190" height="20" transform="translate(180 4116)" fill="none"/>
    <g id="Grupo_108405" data-name="Grupo 108405" transform="translate(209.5 4135)">
      <path id="Rectángulo_5242" data-name="Rectángulo 5242" d="M0,0H12a0,0,0,0,1,0,0V43.333a3,3,0,0,1-3,3H3a3,3,0,0,1-3-3V0A0,0,0,0,1,0,0Z" transform="translate(0 0)" fill="url(#linear-gradient)"/>
    </g>
    <g id="Grupo_108406" data-name="Grupo 108406" transform="translate(340 4123) rotate(180)">
      <path id="Rectángulo_5242-2" data-name="Rectángulo 5242" d="M0,0H12a0,0,0,0,1,0,0V49a3,3,0,0,1-3,3H3a3,3,0,0,1-3-3V0A0,0,0,0,1,0,0Z" transform="translate(0 0)" fill="url(#linear-gradient-2)"/>
    </g>
    <g id="Grupo_136285" data-name="Grupo 136285" transform="translate(0 36)">
      <g transform="matrix(1, 0, 0, 1, 180, 4035)" filter="url(#Rectángulo_40720)">
        <path id="Rectángulo_40720-2" data-name="Rectángulo 40720" d="M10,0H80A10,10,0,0,1,90,10V90a0,0,0,0,1,0,0H10A10,10,0,0,1,0,80V10A10,10,0,0,1,10,0Z" transform="translate(50 10)" fill="#f6f6f6"/>
      </g>
      <g id="administracion" transform="translate(245.722 4060.897)">
        <g id="Grupo_135357" data-name="Grupo 135357" transform="translate(0.009 -0.001)">
          <g id="Grupo_135356" data-name="Grupo 135356" transform="translate(0)">
            <path id="Trazado_193519" data-name="Trazado 193519" d="M53.682,20.585h0a4.855,4.855,0,0,0-4.335,2.7l-12.307-4.4a7.886,7.886,0,0,0,.1-1.225,7.732,7.732,0,0,0-1.534-4.62l6.869-4.58A4.908,4.908,0,1,0,41.4,6.847l-7.154,4.769a7.741,7.741,0,0,0-9.576-.151L21.7,7.752a4.941,4.941,0,1,0-1.408,1.356l2.978,3.721a7.749,7.749,0,0,0-1.629,3.865H9.793a4.866,4.866,0,1,0,0,1.946H21.632a7.7,7.7,0,0,0,.779,2.559L7.758,33.108a4.939,4.939,0,1,0,1.354,1.405L23.866,22.527A.973.973,0,0,0,24.559,21a5.839,5.839,0,1,1,9.586,0l1.6,1.112a7.685,7.685,0,0,0,.738-1.358l12.365,4.416c-.006.1-.028.182-.028.277a4.866,4.866,0,1,0,4.866-4.866ZM45.9,2.1a2.92,2.92,0,1,1-2.92,2.92A2.92,2.92,0,0,1,45.9,2.1ZM17.676,7.935a2.92,2.92,0,1,1,2.92-2.92A2.92,2.92,0,0,1,17.676,7.935ZM5.025,20.586a2.92,2.92,0,1,1,2.92-2.92A2.92,2.92,0,0,1,5.025,20.586Zm0,19.464a2.92,2.92,0,1,1,2.92-2.92A2.92,2.92,0,0,1,5.025,40.05ZM53.684,28.372a2.92,2.92,0,1,1,2.92-2.92A2.92,2.92,0,0,1,53.684,28.372Z" transform="translate(-0.009 0.001)" fill="#6836bf"/>
          </g>
        </g>
        <g id="Grupo_135359" data-name="Grupo 135359" transform="translate(19.623 15.72)">
          <g id="Grupo_135358" data-name="Grupo 135358">
            <path id="Trazado_193520" data-name="Trazado 193520" d="M188.49,144.8a3.883,3.883,0,0,0-2.92,1.321,3.889,3.889,0,0,0-5.839,0,3.887,3.887,0,0,0-4.866-.8v-12.2a3.893,3.893,0,0,0-7.785,0v15.668a6.793,6.793,0,0,0-4.866-2.044.973.973,0,0,0-.973.973v17.517a.973.973,0,0,0,.285.688l6.124,6.124H170.4l-7.215-7.215V148.795a4.874,4.874,0,0,1,3.893,4.769v6.812a.973.973,0,1,0,1.946,0V133.127a1.946,1.946,0,0,1,3.893,0v17.517a.973.973,0,1,0,1.946,0V148.7a1.946,1.946,0,1,1,3.893,0v1.946a.973.973,0,0,0,1.946,0V148.7a1.946,1.946,0,0,1,3.893,0v1.946a.973.973,0,1,0,1.946,0V148.7a1.946,1.946,0,0,1,3.893,0v23.356h1.946V148.7A3.893,3.893,0,0,0,188.49,144.8Z" transform="translate(-161.241 -129.234)" fill="#6836bf"/>
          </g>
        </g>
      </g>
    </g>
  </g>
</svg>
