<svg xmlns="http://www.w3.org/2000/svg" width="64.328" height="64.241" viewBox="0 0 64.328 64.241">
  <g id="Layer_2" data-name="Layer 2" transform="translate(0 -0.047)">
    <g id="_1" data-name="1" transform="translate(0 0.047)">
      <path id="Trazado_194327" data-name="Trazado 194327" d="M41.192,31.435H38.513V28.755h2.679A8.038,8.038,0,1,0,37.669,13.5L36.49,11.1a10.717,10.717,0,1,1,4.7,20.336Z" transform="translate(12.394 3.333)" fill="#b13e8d"/>
      <path id="Trazado_194328" data-name="Trazado 194328" d="M13.4,32.114h-1.34A12.057,12.057,0,1,1,24.114,20.057H21.435a9.378,9.378,0,1,0-9.378,9.378H13.4Z" transform="translate(0 2.654)" fill="#b13e8d"/>
      <path id="Trazado_194329" data-name="Trazado 194329" d="M45.725,23.214l-2.519-.9A14.589,14.589,0,0,0,44.05,17.4a10.685,10.685,0,0,0-.08-1.581,14.736,14.736,0,0,0-28.99-1.768l-2.679-.6a17.416,17.416,0,0,1,34.255,2.09,17.967,17.967,0,0,1,.174,1.862A17.121,17.121,0,0,1,45.725,23.214Z" transform="translate(4.178 -0.047)" fill="#b13e8d"/>
      <path id="Trazado_194330" data-name="Trazado 194330" d="M45.511,33.4H13.359A5.359,5.359,0,0,1,8,28.038V25.359A5.359,5.359,0,0,1,13.359,20H45.511a5.359,5.359,0,0,1,5.359,5.359v2.679A5.359,5.359,0,0,1,45.511,33.4ZM13.359,22.679a2.679,2.679,0,0,0-2.679,2.679v2.679a2.679,2.679,0,0,0,2.679,2.679H45.511a2.679,2.679,0,0,0,2.679-2.679V25.359a2.679,2.679,0,0,0-2.679-2.679Z" transform="translate(2.717 6.73)" fill="#b13e8d"/>
      <path id="Trazado_194331" data-name="Trazado 194331" d="M45.511,41.4H13.359A5.359,5.359,0,0,1,8,36.038V33.359A5.359,5.359,0,0,1,13.359,28H45.511a5.359,5.359,0,0,1,5.359,5.359v2.679A5.359,5.359,0,0,1,45.511,41.4ZM13.359,30.679a2.679,2.679,0,0,0-2.679,2.679v2.679a2.679,2.679,0,0,0,2.679,2.679H45.511a2.679,2.679,0,0,0,2.679-2.679V33.359a2.679,2.679,0,0,0-2.679-2.679Z" transform="translate(2.717 9.447)" fill="#b13e8d"/>
      <path id="Trazado_194332" data-name="Trazado 194332" d="M25.359,50.717a5.359,5.359,0,1,1,5.359-5.359A5.359,5.359,0,0,1,25.359,50.717Zm0-8.038a2.679,2.679,0,1,0,2.679,2.679A2.679,2.679,0,0,0,25.359,42.679Z" transform="translate(6.793 13.523)" fill="#b13e8d"/>
      <rect id="Rectángulo_43930" data-name="Rectángulo 43930" width="22.774" height="2.679" transform="translate(36.171 57.542)" fill="#b13e8d"/>
      <rect id="Rectángulo_43931" data-name="Rectángulo 43931" width="22.774" height="2.679" transform="translate(5.359 57.542)" fill="#b13e8d"/>
      <rect id="Rectángulo_43932" data-name="Rectángulo 43932" width="2.679" height="5.359" transform="translate(30.812 49.504)" fill="#b13e8d"/>
      <rect id="Rectángulo_43933" data-name="Rectángulo 43933" width="2.679" height="2.679" transform="translate(16.076 42.806)" fill="#b13e8d"/>
      <rect id="Rectángulo_43934" data-name="Rectángulo 43934" width="2.679" height="2.679" transform="translate(21.435 42.806)" fill="#b13e8d"/>
      <rect id="Rectángulo_43935" data-name="Rectángulo 43935" width="2.679" height="2.679" transform="translate(26.793 42.806)" fill="#b13e8d"/>
      <rect id="Rectángulo_43936" data-name="Rectángulo 43936" width="2.679" height="2.679" transform="translate(16.076 32.089)" fill="#b13e8d"/>
      <rect id="Rectángulo_43937" data-name="Rectángulo 43937" width="2.679" height="2.679" transform="translate(21.435 32.089)" fill="#b13e8d"/>
      <rect id="Rectángulo_43938" data-name="Rectángulo 43938" width="2.679" height="2.679" transform="translate(26.793 32.089)" fill="#b13e8d"/>
      <rect id="Rectángulo_43939" data-name="Rectángulo 43939" width="2.679" height="2.679" transform="translate(45.549 42.806)" fill="#b13e8d"/>
      <rect id="Rectángulo_43940" data-name="Rectángulo 43940" width="2.679" height="2.679" transform="translate(45.549 32.089)" fill="#b13e8d"/>
    </g>
  </g>
</svg>
