<svg xmlns="http://www.w3.org/2000/svg" width="73.891" height="74.24" viewBox="0 0 73.891 74.24">
  <g id="Grupo_136698" data-name="Grupo 136698" transform="translate(10925.466 6690.67)">
    <g id="Layer_2" data-name="Layer 2" transform="translate(-10891.414 -6678.202)">
      <g id="_1" data-name="1">
        <path id="Trazado_194272" data-name="Trazado 194272" d="M23.758,44.109H14.514A.514.514,0,0,1,14,43.595V40.514A.514.514,0,0,1,14.514,40h9.244a.514.514,0,0,1,.514.514v3.081A.514.514,0,0,1,23.758,44.109Zm-8.731-1.027h8.217V41.027H15.027Z" transform="translate(-6.81 -19.457)" fill="#b13e8d"/>
        <rect id="Rectángulo_43855" data-name="Rectángulo 43855" width="4.109" height="1.027" transform="translate(5.136 2.054)" fill="#b13e8d"/>
        <path id="Trazado_194273" data-name="Trazado 194273" d="M23.11,23.515H1.541A1.541,1.541,0,0,1,0,21.975V5.541A1.541,1.541,0,0,1,1.541,4H3.595V5.027H1.541a.514.514,0,0,0-.514.514V21.975a.514.514,0,0,0,.514.514H23.11a.514.514,0,0,0,.514-.514V5.541a.514.514,0,0,0-.514-.514H16.434V4H23.11a1.541,1.541,0,0,1,1.541,1.541V21.975A1.541,1.541,0,0,1,23.11,23.515Z" transform="translate(0 -1.946)" fill="#b13e8d"/>
        <rect id="Rectángulo_43856" data-name="Rectángulo 43856" width="16.434" height="1.027" transform="translate(4.109 23.624)" fill="#b13e8d"/>
        <path id="Trazado_194274" data-name="Trazado 194274" d="M25.136,16.434H24.109V1.027H21.027V16.434H20V.514A.514.514,0,0,1,20.514,0h4.109a.514.514,0,0,1,.514.514Z" transform="translate(-9.729 0)" fill="#b13e8d"/>
        <path id="Trazado_194275" data-name="Trazado 194275" d="M13.027,24.7H12v-7.19A.514.514,0,0,1,12.514,17h4.109v1.027H13.027Z" transform="translate(-5.837 -8.269)" fill="#b13e8d"/>
        <path id="Trazado_194276" data-name="Trazado 194276" d="M33.622,21.785H32.595V12.027H29V11h4.109a.514.514,0,0,1,.514.514Z" transform="translate(-14.107 -5.351)" fill="#b13e8d"/>
        <path id="Trazado_194277" data-name="Trazado 194277" d="M24.488,18.488H6.514A.514.514,0,0,1,6,17.975V0H7.027V17.461H24.488Z" transform="translate(-2.919)" fill="#b13e8d"/>
      </g>
    </g>
    <g id="Layer_2-2" data-name="Layer 2" transform="translate(-10918.447 -6664.849)">
      <g id="_1-2" data-name="1" transform="translate(0 0)">
        <path id="Trazado_194359" data-name="Trazado 194359" d="M7.532,23.591H.942A.942.942,0,0,1,0,22.649V17.942A.942.942,0,0,1,.942,17H7.532v.942H.942v4.708H7.532Z" transform="translate(0 -8.997)" fill="#b13e8d"/>
        <path id="Trazado_194360" data-name="Trazado 194360" d="M22.6,6.591h-.942V.942H.942V5.649H8.474v.942H.942A.942.942,0,0,1,0,5.649V.942A.942.942,0,0,1,.942,0H21.655A.942.942,0,0,1,22.6.942Z" transform="translate(0 0)" fill="#b13e8d"/>
        <path id="Trazado_194361" data-name="Trazado 194361" d="M21.655,40.591H.942A.942.942,0,0,1,0,39.649V34.942A.942.942,0,0,1,.942,34H8.474v.942H.942v4.708H21.655V34H22.6v5.649A.942.942,0,0,1,21.655,40.591Z" transform="translate(0 -17.994)" fill="#b13e8d"/>
        <rect id="Rectángulo_43982" data-name="Rectángulo 43982" width="0.942" height="2.354" transform="translate(2.354 14.123)" fill="#b13e8d"/>
        <rect id="Rectángulo_43983" data-name="Rectángulo 43983" width="0.942" height="2.354" transform="translate(2.825 6.12)" fill="#b13e8d"/>
        <rect id="Rectángulo_43984" data-name="Rectángulo 43984" width="0.942" height="0.942" transform="translate(2.354 18.83)" fill="#b13e8d"/>
        <rect id="Rectángulo_43985" data-name="Rectángulo 43985" width="0.942" height="0.942" transform="translate(14.594 15.064)" fill="#b13e8d"/>
        <rect id="Rectángulo_43986" data-name="Rectángulo 43986" width="0.942" height="0.942" transform="translate(16.477 15.064)" fill="#b13e8d"/>
        <rect id="Rectángulo_43987" data-name="Rectángulo 43987" width="0.942" height="0.942" transform="translate(12.711 15.064)" fill="#b13e8d"/>
        <rect id="Rectángulo_43988" data-name="Rectángulo 43988" width="0.942" height="0.942" transform="translate(2.354 10.828)" fill="#b13e8d"/>
        <rect id="Rectángulo_43989" data-name="Rectángulo 43989" width="0.942" height="0.942" transform="translate(2.354 2.825)" fill="#b13e8d"/>
        <rect id="Rectángulo_43990" data-name="Rectángulo 43990" width="8.003" height="0.942" transform="translate(4.237 18.83)" fill="#b13e8d"/>
        <rect id="Rectángulo_43991" data-name="Rectángulo 43991" width="2.354" height="0.942" transform="translate(4.237 10.828)" fill="#b13e8d"/>
        <rect id="Rectángulo_43992" data-name="Rectángulo 43992" width="8.003" height="0.942" transform="translate(4.237 2.825)" fill="#b13e8d"/>
        <path id="Trazado_194362" data-name="Trazado 194362" d="M29.883,23.766a1.883,1.883,0,1,1,1.883-1.883A1.883,1.883,0,0,1,29.883,23.766Zm0-2.825a.942.942,0,1,0,.942.942A.942.942,0,0,0,29.883,20.942Z" transform="translate(-14.819 -10.585)" fill="#b13e8d"/>
        <path id="Trazado_194363" data-name="Trazado 194363" d="M23.532,23.064a7.532,7.532,0,1,1,7.532-7.532A7.532,7.532,0,0,1,23.532,23.064Zm0-14.123a6.591,6.591,0,1,0,6.591,6.591,6.591,6.591,0,0,0-6.591-6.591Z" transform="translate(-8.468 -4.234)" fill="#b13e8d"/>
        <rect id="Rectángulo_43993" data-name="Rectángulo 43993" width="1.332" height="0.942" transform="translate(12.849 12.845) rotate(-45)" fill="#b13e8d"/>
        <rect id="Rectángulo_43994" data-name="Rectángulo 43994" width="3.997" height="0.942" transform="translate(15.673 10.024) rotate(-45)" fill="#b13e8d"/>
        <rect id="Rectángulo_43995" data-name="Rectángulo 43995" width="0.942" height="1.883" transform="translate(14.594 4.237)" fill="#b13e8d"/>
        <rect id="Rectángulo_43996" data-name="Rectángulo 43996" width="1.883" height="0.942" transform="translate(8.003 10.828)" fill="#b13e8d"/>
        <rect id="Rectángulo_43997" data-name="Rectángulo 43997" width="1.883" height="0.942" transform="translate(20.243 10.828)" fill="#b13e8d"/>
        <rect id="Rectángulo_43998" data-name="Rectángulo 43998" width="0.942" height="1.883" transform="translate(18.39 15.293) rotate(-45)" fill="#b13e8d"/>
        <rect id="Rectángulo_43999" data-name="Rectángulo 43999" width="0.942" height="1.883" transform="translate(9.74 6.636) rotate(-45)" fill="#b13e8d"/>
        <rect id="Rectángulo_44000" data-name="Rectángulo 44000" width="1.883" height="0.942" transform="translate(9.739 15.957) rotate(-45)" fill="#b13e8d"/>
      </g>
    </g>
    <g id="Layer_2-3" data-name="Layer 2" transform="translate(-10890.521 -6649.283)">
      <g id="_1-3" data-name="1" transform="translate(0 0)">
        <path id="Trazado_194395" data-name="Trazado 194395" d="M32.087,38.213a.511.511,0,0,1-.475-.327L28.038,28.7a.511.511,0,0,1,.659-.659l9.19,3.574a.511.511,0,0,1,0,.955l-3.865,1.45-1.45,3.865A.511.511,0,0,1,32.087,38.213Zm-2.675-8.8,2.675,6.862,1.062-2.833a.546.546,0,0,1,.3-.3l2.823-1.052Z" transform="translate(-13.707 -13.707)" fill="#b13e8d"/>
        <path id="Trazado_194396" data-name="Trazado 194396" d="M6.637,9.19H2.553A2.553,2.553,0,0,1,0,6.637V2.553A2.553,2.553,0,0,1,2.553,0H6.637A2.553,2.553,0,0,1,9.19,2.553V6.637A2.553,2.553,0,0,1,6.637,9.19ZM2.553,1.021A1.532,1.532,0,0,0,1.021,2.553V6.637A1.532,1.532,0,0,0,2.553,8.169H6.637A1.532,1.532,0,0,0,8.169,6.637V2.553A1.532,1.532,0,0,0,6.637,1.021Z" transform="translate(0 0)" fill="#b13e8d"/>
        <path id="Trazado_194397" data-name="Trazado 194397" d="M28.637,9.19H24.553A2.553,2.553,0,0,1,22,6.637V2.553A2.553,2.553,0,0,1,24.553,0h4.084A2.553,2.553,0,0,1,31.19,2.553V6.637A2.553,2.553,0,0,1,28.637,9.19ZM24.553,1.021a1.532,1.532,0,0,0-1.532,1.532V6.637a1.532,1.532,0,0,0,1.532,1.532h4.084a1.532,1.532,0,0,0,1.532-1.532V2.553a1.532,1.532,0,0,0-1.532-1.532Z" transform="translate(-10.768 0)" fill="#b13e8d"/>
        <path id="Trazado_194398" data-name="Trazado 194398" d="M6.637,31.19H2.553A2.553,2.553,0,0,1,0,28.637V24.553A2.553,2.553,0,0,1,2.553,22H6.637A2.553,2.553,0,0,1,9.19,24.553v4.084A2.553,2.553,0,0,1,6.637,31.19ZM2.553,23.021a1.532,1.532,0,0,0-1.532,1.532v4.084a1.532,1.532,0,0,0,1.532,1.532H6.637a1.532,1.532,0,0,0,1.532-1.532V24.553a1.532,1.532,0,0,0-1.532-1.532Z" transform="translate(0 -10.768)" fill="#b13e8d"/>
        <path id="Trazado_194399" data-name="Trazado 194399" d="M26.084,31.19H24.553A2.553,2.553,0,0,1,22,28.637V24.553A2.553,2.553,0,0,1,24.553,22h4.084a2.553,2.553,0,0,1,2.553,2.553v1.532H30.168V24.553a1.532,1.532,0,0,0-1.532-1.532H24.553a1.532,1.532,0,0,0-1.532,1.532v4.084a1.532,1.532,0,0,0,1.532,1.532h1.532Z" transform="translate(-10.768 -10.768)" fill="#b13e8d"/>
      </g>
    </g>
    <g id="Layer_2-4" data-name="Layer 2" transform="translate(-10925.466 -6690.67)">
      <g id="_1-4" data-name="1" transform="translate(0 0)">
        <path id="Trazado_194674" data-name="Trazado 194674" d="M26.634,72.694A37.12,37.12,0,0,1,37.058,0V3.093A34.027,34.027,0,0,0,27.5,69.786Z" transform="translate(-0.113 0)" fill="#b13e8d"/>
        <path id="Trazado_194675" data-name="Trazado 194675" d="M24,73.694V70.6A34.027,34.027,0,0,0,33.558,3.908L34.425,1A37.12,37.12,0,0,1,24,73.694Z" transform="translate(12.946 0.547)" fill="#b13e8d"/>
        <path id="Trazado_194676" data-name="Trazado 194676" d="M21.827,52.073H11V48.979h8.321L15.81,41.942l2.753-1.392,4.64,9.28a1.547,1.547,0,0,1-1.377,2.243Z" transform="translate(5.839 22.168)" fill="#b13e8d"/>
        <path id="Trazado_194677" data-name="Trazado 194677" d="M33.808,11.523l-4.64-9.28A1.547,1.547,0,0,1,30.545,0H41.372V3.093H33.051l3.511,7.037Z" transform="translate(15.681 0)" fill="#b13e8d"/>
      </g>
    </g>
  </g>
</svg>
