<svg id="Grupo_136769" data-name="Grupo 136769" xmlns="http://www.w3.org/2000/svg" width="73.54" height="73.54" viewBox="0 0 73.54 73.54">
  <g id="Grupo_136770" data-name="Grupo 136770">
    <g id="Trazado_195360" data-name="Trazado 195360" fill="none">
      <path d="M36.77,0A36.77,36.77,0,1,1,0,36.77,36.77,36.77,0,0,1,36.77,0Z" stroke="none"/>
      <path d="M 36.77001953125 2.999992370605469 C 32.20977401733398 2.999992370605469 27.78752517700195 3.8924560546875 23.62612533569336 5.652587890625 C 19.60517120361328 7.353302001953125 15.99336242675781 9.788654327392578 12.89100646972656 12.89100646972656 C 9.788654327392578 15.99336242675781 7.353302001953125 19.60517120361328 5.652587890625 23.62612533569336 C 3.8924560546875 27.78752517700195 2.999992370605469 32.20977401733398 2.999992370605469 36.77001953125 C 2.999992370605469 41.33026504516602 3.8924560546875 45.75251388549805 5.652587890625 49.91391372680664 C 7.353302001953125 53.93486785888672 9.788654327392578 57.54667663574219 12.89100646972656 60.64903259277344 C 15.99336242675781 63.75138473510742 19.60517120361328 66.18673706054688 23.62612533569336 67.887451171875 C 27.78752517700195 69.6475830078125 32.20977401733398 70.54004669189453 36.77001953125 70.54004669189453 C 41.33026504516602 70.54004669189453 45.75251388549805 69.6475830078125 49.91391372680664 67.887451171875 C 53.93486785888672 66.18673706054688 57.54667663574219 63.75138473510742 60.64903259277344 60.64903259277344 C 63.75138473510742 57.54667663574219 66.18673706054688 53.93486785888672 67.887451171875 49.91391372680664 C 69.6475830078125 45.75251388549805 70.54004669189453 41.33026504516602 70.54004669189453 36.77001953125 C 70.54004669189453 32.20977401733398 69.6475830078125 27.78752517700195 67.887451171875 23.62612533569336 C 66.18673706054688 19.60517120361328 63.75138473510742 15.99336242675781 60.64903259277344 12.89100646972656 C 57.54667663574219 9.788654327392578 53.93486785888672 7.353302001953125 49.91391372680664 5.652587890625 C 45.75251388549805 3.8924560546875 41.33026504516602 2.999992370605469 36.77001953125 2.999992370605469 M 36.77001953125 -7.62939453125e-06 C 57.07753753662109 -7.62939453125e-06 73.54004669189453 16.46250152587891 73.54004669189453 36.77001953125 C 73.54004669189453 57.07753753662109 57.07753753662109 73.54004669189453 36.77001953125 73.54004669189453 C 16.46250152587891 73.54004669189453 -7.62939453125e-06 57.07753753662109 -7.62939453125e-06 36.77001953125 C -7.62939453125e-06 16.46250152587891 16.46250152587891 -7.62939453125e-06 36.77001953125 -7.62939453125e-06 Z" stroke="none" fill="#b13e8d"/>
    </g>
    <g id="Grupo_136701" data-name="Grupo 136701" transform="translate(14.796 16.645)">
      <g id="Layer_2" data-name="Layer 2" transform="translate(0 0)">
        <g id="_1" data-name="1">
          <path id="Trazado_194168" data-name="Trazado 194168" d="M6.5,39.016H.929A.929.929,0,0,1,0,38.087V.929A.929.929,0,0,1,.929,0H15.792a.929.929,0,0,1,.8.455l2.518,4.19H38.087a.929.929,0,0,1,.929.929v4.645H37.158V6.5H18.579a.929.929,0,0,1-.8-.455l-2.518-4.19H1.858v35.3H6.5Z" transform="translate(0 0)" fill="#b13e8d"/>
          <path id="Trazado_194169" data-name="Trazado 194169" d="M44.229,39.869H38.655V38.011H43.3V13.858H9.858V38.011H14.5v1.858H8.929A.929.929,0,0,1,8,38.94V12.929A.929.929,0,0,1,8.929,12h35.3a.929.929,0,0,1,.929.929V38.94A.929.929,0,0,1,44.229,39.869Z" transform="translate(-0.568 -0.853)" fill="#b13e8d"/>
          <rect id="Rectángulo_43684" data-name="Rectángulo 43684" width="9.29" height="1.858" transform="translate(4.645 4.645)" fill="#b13e8d"/>
          <g id="Grupo_136700" data-name="Grupo 136700" transform="translate(36.397 15.43)">
            <path id="Trazado_194170" data-name="Trazado 194170" d="M20,32H16.8a.8.8,0,0,1-.8-.8V28.8a.8.8,0,0,1,.8-.8H20a.8.8,0,0,1,.8.8v2.4A.8.8,0,0,1,20,32Zm-3.2-3.6a.4.4,0,0,0-.4.4v2.4a.4.4,0,0,0,.4.4H20a.4.4,0,0,0,.4-.4V28.8a.4.4,0,0,0-.4-.4Z" transform="translate(-16 -26.002)" fill="#b13e8d"/>
            <path id="Trazado_194171" data-name="Trazado 194171" d="M23,20.4H20.2a.2.2,0,0,1-.2-.2v-1A1.2,1.2,0,0,1,21.2,18H22a1.2,1.2,0,0,1,1.2,1.2v1A.2.2,0,0,1,23,20.4ZM20.4,20h2.4v-.8a.8.8,0,0,0-.8-.8h-.8a.8.8,0,0,0-.8.8Z" transform="translate(-19.2 -18)" fill="#b13e8d"/>
            <path id="Trazado_194172" data-name="Trazado 194172" d="M24.8,34.6a.8.8,0,1,1,.8-.8A.8.8,0,0,1,24.8,34.6Zm0-1.2a.4.4,0,1,0,.4.4A.4.4,0,0,0,24.8,33.4Z" transform="translate(-22.401 -30.002)" fill="#b13e8d"/>
          </g>
        </g>
      </g>
      <g id="Layer_2-2" data-name="Layer 2" transform="translate(16.506 19.508)">
        <g id="_1-2" data-name="1" transform="translate(0 0)">
          <rect id="Rectángulo_43916" data-name="Rectángulo 43916" width="4.47" height="0.894" transform="translate(8.047 5.364)" fill="#b13e8d"/>
          <rect id="Rectángulo_43917" data-name="Rectángulo 43917" width="4.47" height="0.894" transform="translate(2.682 5.364)" fill="#b13e8d"/>
          <rect id="Rectángulo_43918" data-name="Rectángulo 43918" width="3.576" height="0.894" transform="translate(6.258 7.6)" fill="#b13e8d"/>
          <rect id="Rectángulo_43919" data-name="Rectángulo 43919" width="2.682" height="0.894" transform="translate(2.682 7.6)" fill="#b13e8d"/>
          <rect id="Rectángulo_43920" data-name="Rectángulo 43920" width="4.47" height="0.894" transform="translate(2.682 9.835)" fill="#b13e8d"/>
          <rect id="Rectángulo_43921" data-name="Rectángulo 43921" width="0.894" height="2.235" transform="translate(2.682 16.987)" fill="#b13e8d"/>
          <rect id="Rectángulo_43922" data-name="Rectángulo 43922" width="0.894" height="3.576" transform="translate(4.47 15.646)" fill="#b13e8d"/>
          <rect id="Rectángulo_43923" data-name="Rectángulo 43923" width="0.894" height="2.682" transform="translate(6.258 16.54)" fill="#b13e8d"/>
          <rect id="Rectángulo_43924" data-name="Rectángulo 43924" width="0.894" height="4.917" transform="translate(8.047 14.305)" fill="#b13e8d"/>
          <rect id="Rectángulo_43925" data-name="Rectángulo 43925" width="6.258" height="0.894" transform="translate(2.682 12.07)" fill="#b13e8d"/>
          <path id="Trazado_194308" data-name="Trazado 194308" d="M16.54,21.458H1.341A1.341,1.341,0,0,1,0,20.116V1.341A1.341,1.341,0,0,1,1.341,0h15.2a1.341,1.341,0,0,1,1.341,1.341v4.47h-.894V1.341A.447.447,0,0,0,16.54.894H1.341a.447.447,0,0,0-.447.447V20.116a.447.447,0,0,0,.447.447h15.2a.447.447,0,0,0,.447-.447V18.328h.894v1.788A1.341,1.341,0,0,1,16.54,21.458Z" transform="translate(0 0)" fill="#b13e8d"/>
          <path id="Trazado_194309" data-name="Trazado 194309" d="M17.494,3.576H10.341A1.341,1.341,0,0,1,9,2.235V.447A.447.447,0,0,1,9.447,0h8.941a.447.447,0,0,1,.447.447V2.235a1.341,1.341,0,0,1-1.341,1.341ZM9.894.894V2.235a.447.447,0,0,0,.447.447h7.153a.447.447,0,0,0,.447-.447V.894Z" transform="translate(-4.977 0)" fill="#b13e8d"/>
          <path id="Trazado_194310" data-name="Trazado 194310" d="M27.811,25.623a5.811,5.811,0,1,1,5.811-5.811A5.811,5.811,0,0,1,27.811,25.623Zm0-10.729a4.917,4.917,0,1,0,4.917,4.917A4.917,4.917,0,0,0,27.811,14.894Z" transform="translate(-12.165 -7.742)" fill="#b13e8d"/>
          <path id="Trazado_194311" data-name="Trazado 194311" d="M32.235,26.47a2.235,2.235,0,1,1,2.235-2.235A2.235,2.235,0,0,1,32.235,26.47Zm0-3.576a1.341,1.341,0,1,0,1.341,1.341A1.341,1.341,0,0,0,32.235,22.894Z" transform="translate(-16.589 -12.165)" fill="#b13e8d"/>
          <rect id="Rectángulo_43926" data-name="Rectángulo 43926" width="0.894" height="3.576" transform="translate(15.199 6.705)" fill="#b13e8d"/>
          <rect id="Rectángulo_43927" data-name="Rectángulo 43927" width="3.576" height="0.894" transform="translate(16.596 10.487) rotate(-45)" fill="#b13e8d"/>
          <rect id="Rectángulo_43928" data-name="Rectángulo 43928" width="0.894" height="3.576" transform="translate(16.598 13.653) rotate(-45)" fill="#b13e8d"/>
        </g>
      </g>
    </g>
  </g>
</svg>
