<svg xmlns="http://www.w3.org/2000/svg" width="73.547" height="73.547" viewBox="0 0 73.547 73.547">
  <g id="Grupo_136771" data-name="Grupo 136771" transform="translate(-975 -4224)">
    <g id="Trazado_195361" data-name="Trazado 195361" transform="translate(975 4224)" fill="none">
      <path d="M36.774,0A36.774,36.774,0,1,1,0,36.774,36.774,36.774,0,0,1,36.774,0Z" stroke="none"/>
      <path d="M 36.773681640625 3 C 32.21294021606445 3 27.79022216796875 3.892555236816406 23.62836456298828 5.652870178222656 C 19.60697555541992 7.353775024414062 15.9947624206543 9.789398193359375 12.89208221435547 12.89208221435547 C 9.789398193359375 15.9947624206543 7.353775024414062 19.60697555541992 5.652870178222656 23.62836456298828 C 3.892555236816406 27.79022216796875 3 32.21294021606445 3 36.773681640625 C 3 41.33442306518555 3.892555236816406 45.75714111328125 5.652870178222656 49.91899871826172 C 7.353775024414062 53.94038772583008 9.789398193359375 57.55259704589844 12.89208221435547 60.65528106689453 C 15.9947624206543 63.75796508789062 19.60697555541992 66.19358825683594 23.62836456298828 67.89449310302734 C 27.79022216796875 69.65480804443359 32.21294021606445 70.54736328125 36.773681640625 70.54736328125 C 41.33442306518555 70.54736328125 45.75714111328125 69.65480804443359 49.91899871826172 67.89449310302734 C 53.94038772583008 66.19358825683594 57.55259704589844 63.75796508789062 60.65528106689453 60.65528106689453 C 63.75796508789062 57.55259704589844 66.19358825683594 53.94038772583008 67.89449310302734 49.91899871826172 C 69.65480804443359 45.75714111328125 70.54736328125 41.33442306518555 70.54736328125 36.773681640625 C 70.54736328125 32.21294021606445 69.65480804443359 27.79022216796875 67.89449310302734 23.62836456298828 C 66.19358825683594 19.60697555541992 63.75796508789062 15.9947624206543 60.65528106689453 12.89208221435547 C 57.55259704589844 9.789398193359375 53.94038772583008 7.353775024414062 49.91899871826172 5.652870178222656 C 45.75714111328125 3.892555236816406 41.33442306518555 3 36.773681640625 3 M 36.773681640625 0 C 57.08322143554688 0 73.54736328125 16.46414184570312 73.54736328125 36.773681640625 C 73.54736328125 57.08322143554688 57.08322143554688 73.54736328125 36.773681640625 73.54736328125 C 16.46414184570312 73.54736328125 0 57.08322143554688 0 36.773681640625 C 0 16.46414184570312 16.46414184570312 0 36.773681640625 0 Z" stroke="none" fill="#b13e8d"/>
    </g>
    <g id="gdpr" transform="translate(994.114 4240.647)">
      <g id="Grupo_135315" data-name="Grupo 135315" transform="translate(8.194 21.851)">
        <path id="Trazado_193172" data-name="Trazado 193172" d="M280.5,256h5.463v1.366H280.5Zm0,0" transform="translate(-264.795 -256)" fill="#b13e8d"/>
        <path id="Trazado_193173" data-name="Trazado 193173" d="M96.5,256h14.339v1.366H96.5Zm0,0" transform="translate(-96.5 -256)" fill="#b13e8d"/>
        <path id="Trazado_193174" data-name="Trazado 193174" d="M184.5,288h13.657v1.366H184.5Zm0,0" transform="translate(-176.989 -285.269)" fill="#b13e8d"/>
        <path id="Trazado_193175" data-name="Trazado 193175" d="M96.5,288h6.145v1.366H96.5Zm0,0" transform="translate(-96.5 -285.269)" fill="#b13e8d"/>
        <path id="Trazado_193176" data-name="Trazado 193176" d="M240.5,352h8.877v1.366H240.5Zm0,0" transform="translate(-228.209 -343.806)" fill="#b13e8d"/>
        <path id="Trazado_193177" data-name="Trazado 193177" d="M96.5,352h10.925v1.366H96.5Zm0,0" transform="translate(-96.5 -343.806)" fill="#b13e8d"/>
      </g>
      <path id="Trazado_193180" data-name="Trazado 193180" d="M144.5,320h17.071v1.366H144.5Zm0,0" transform="translate(-132.209 -292.687)" fill="#b13e8d"/>
      <path id="Trazado_193181" data-name="Trazado 193181" d="M96.5,320h2.731v1.366H96.5Zm0,0" transform="translate(-88.306 -292.687)" fill="#b13e8d"/>
      <path id="Trazado_193182" data-name="Trazado 193182" d="M184.5,224h13.657v1.366H184.5Zm0,0" transform="translate(-168.795 -204.881)" fill="#b13e8d"/>
      <path id="Trazado_193183" data-name="Trazado 193183" d="M96.5,224h6.145v1.366H96.5Zm0,0" transform="translate(-88.306 -204.881)" fill="#b13e8d"/>
      <path id="Trazado_193184" data-name="Trazado 193184" d="M160.5,184h9.56v1.366H160.5Zm0,0" transform="translate(-146.843 -168.295)" fill="#b13e8d"/>
      <path id="Trazado_193186" data-name="Trazado 193186" d="M32.593,3.414A3.381,3.381,0,0,0,29.179,0H3.914A3.381,3.381,0,0,0,.5,3.414V8.877H5.963V37.556A3.381,3.381,0,0,0,9.377,40.97H32.593a3.381,3.381,0,0,0,3.414-3.414V34.142H32.593Zm-26.63,4.1h-4.1v-4.1A2.012,2.012,0,0,1,3.914,1.366,2.012,2.012,0,0,1,5.963,3.414ZM7.328,37.556V3.414a3.679,3.679,0,0,0-.683-2.048H29.179a2.012,2.012,0,0,1,2.048,2.048V34.142h-19.8v3.414a2.048,2.048,0,1,1-4.1,0Zm27.313-2.048v2.048A2.012,2.012,0,0,1,32.593,39.6H12.108a3.221,3.221,0,0,0,.683-2.049V35.507Zm0,0" transform="translate(-0.5)" fill="#b13e8d"/>
      <path id="Trazado_193187" data-name="Trazado 193187" d="M280.5,256h5.463v1.366H280.5Zm0,0" transform="translate(-256.601 -234.149)" fill="#b13e8d"/>
      <path id="Trazado_193188" data-name="Trazado 193188" d="M96.5,256h14.339v1.366H96.5Zm0,0" transform="translate(-88.306 -234.149)" fill="#b13e8d"/>
      <path id="Trazado_193189" data-name="Trazado 193189" d="M184.5,288h13.657v1.366H184.5Zm0,0" transform="translate(-168.795 -263.418)" fill="#b13e8d"/>
      <path id="Trazado_193190" data-name="Trazado 193190" d="M96.5,288h6.145v1.366H96.5Zm0,0" transform="translate(-88.306 -263.418)" fill="#b13e8d"/>
      <path id="Trazado_193191" data-name="Trazado 193191" d="M240.5,352h8.877v1.366H240.5Zm0,0" transform="translate(-220.015 -321.955)" fill="#b13e8d"/>
      <path id="Trazado_193192" data-name="Trazado 193192" d="M96.5,352h10.925v1.366H96.5Zm0,0" transform="translate(-88.306 -321.955)" fill="#b13e8d"/>
      <path id="Trazado_193193" data-name="Trazado 193193" d="M164.46,43.2l.82.546.82-.546a8.925,8.925,0,0,0,3.96-7.374V33.57L165.28,32l-4.78,1.57v2.254A8.925,8.925,0,0,0,164.46,43.2Zm-2.595-8.672,3.414-1.161,3.414,1.161v1.3a7.535,7.535,0,0,1-3.346,6.282h-.068l-.068-.068a7.448,7.448,0,0,1-3.346-6.282Zm0,0" transform="translate(-146.843 -29.269)" fill="#b13e8d"/>
      <path id="Trazado_193195" data-name="Trazado 193195" d="M144.5,320h17.071v1.366H144.5Zm0,0" transform="translate(-132.209 -292.687)" fill="#b13e8d"/>
      <path id="Trazado_193196" data-name="Trazado 193196" d="M96.5,320h2.731v1.366H96.5Zm0,0" transform="translate(-88.306 -292.687)" fill="#b13e8d"/>
      <path id="Trazado_193197" data-name="Trazado 193197" d="M184.5,224h13.657v1.366H184.5Zm0,0" transform="translate(-168.795 -204.881)" fill="#b13e8d"/>
      <path id="Trazado_193198" data-name="Trazado 193198" d="M96.5,224h6.145v1.366H96.5Zm0,0" transform="translate(-88.306 -204.881)" fill="#b13e8d"/>
      <path id="Trazado_193199" data-name="Trazado 193199" d="M160.5,184h9.56v1.366H160.5Zm0,0" transform="translate(-146.843 -168.295)" fill="#b13e8d"/>
    </g>
  </g>
</svg>
