<svg xmlns="http://www.w3.org/2000/svg" xmlns:xlink="http://www.w3.org/1999/xlink" width="86" height="86" viewBox="0 0 86 86">
  <defs>
    <filter id="Rectángulo_40821" x="0" y="0" width="86" height="86" filterUnits="userSpaceOnUse">
      <feOffset dy="3" input="SourceAlpha"/>
      <feGaussianBlur stdDeviation="3" result="blur"/>
      <feFlood flood-opacity="0.161"/>
      <feComposite operator="in" in2="blur"/>
      <feComposite in="SourceGraphic"/>
    </filter>
  </defs>
  <g id="Grupo_136270" data-name="Grupo 136270" transform="translate(9.296 5.816)">
    <g transform="matrix(1, 0, 0, 1, -9.3, -5.82)" filter="url(#Rectángulo_40821)">
      <path id="Rectángulo_40821-2" data-name="Rectángulo 40821" d="M10,0H58A10,10,0,0,1,68,10V68a0,0,0,0,1,0,0H10A10,10,0,0,1,0,58V10A10,10,0,0,1,10,0Z" transform="translate(9 6)" fill="#7fc733"/>
    </g>
    <g id="Grupo_136265" data-name="Grupo 136265" transform="translate(7.433 11.09)">
      <path id="Trazado_194151" data-name="Trazado 194151" d="M54.826,8H6.877A2.877,2.877,0,0,0,4,10.877V51.155a2.877,2.877,0,0,0,2.877,2.877h47.95A2.877,2.877,0,0,0,57.7,51.155V10.877A2.877,2.877,0,0,0,54.826,8Zm.959,43.155a.959.959,0,0,1-.959.959H6.877a.959.959,0,0,1-.959-.959V10.877a.959.959,0,0,1,.959-.959h47.95a.959.959,0,0,1,.959.959Z" transform="translate(-4 -8)" fill="#12263f"/>
      <path id="Rectángulo_43640_-_Contorno" data-name="Rectángulo 43640 - Contorno" d="M-.166-.5H3.381a.334.334,0,0,1,.334.334V10.473a.334.334,0,0,1-.334.334H-.166A.334.334,0,0,1-.5,10.473V-.166A.334.334,0,0,1-.166-.5ZM3.046.169H.169v9.97H3.046Z" transform="translate(5.96 31.267)" fill="#12263f"/>
      <path id="Rectángulo_43644_-_Contorno" data-name="Rectángulo 43644 - Contorno" d="M-.166-.5H6.04a.334.334,0,0,1,.334.334v13.3a.334.334,0,0,1-.334.334H-.166A.334.334,0,0,1-.5,13.132V-.166A.334.334,0,0,1-.166-.5ZM5.706.169H.169V12.8H5.706Z" transform="translate(12.165 28.608)" fill="#12263f"/>
      <path id="Rectángulo_43649_-_Contorno" data-name="Rectángulo 43649 - Contorno" d="M-.166-.5H9.586a.334.334,0,0,1,.334.334V10.473a.334.334,0,0,1-.334.334H-.166A.334.334,0,0,1-.5,10.473V-.166A.334.334,0,0,1-.166-.5ZM9.252.169H.169v9.97H9.252Z" transform="translate(20.863 31.267)" fill="#12263f"/>
      <path id="Rectángulo_43652_-_Contorno" data-name="Rectángulo 43652 - Contorno" d="M-.166-.5H9.586a.334.334,0,0,1,.334.334V6.927a.334.334,0,0,1-.334.334H-.166A.334.334,0,0,1-.5,6.927V-.166A.334.334,0,0,1-.166-.5ZM9.252.169H.169V6.592H9.252Z" transform="translate(20.863 22.535)" fill="#12263f"/>
      <path id="Rectángulo_43653_-_Contorno" data-name="Rectángulo 43653 - Contorno" d="M-.166-.5H9.586a.334.334,0,0,1,.334.334v2.66a.334.334,0,0,1-.334.334H-.166A.334.334,0,0,1-.5,2.494V-.166A.334.334,0,0,1-.166-.5ZM9.252.169H.169V2.16H9.252Z" transform="translate(20.863 18.168)" fill="#12263f"/>
      <path id="Rectángulo_43655_-_Contorno" data-name="Rectángulo 43655 - Contorno" d="M-.166-.5H9.586a.334.334,0,0,1,.334.334V4.267a.334.334,0,0,1-.334.334H-.166A.334.334,0,0,1-.5,4.267V-.166A.334.334,0,0,1-.166-.5ZM9.252.169H.169V3.933H9.252Z" transform="translate(20.863 12.016)" fill="#12263f"/>
      <path id="Rectángulo_43656_-_Contorno" data-name="Rectángulo 43656 - Contorno" d="M-.166-.5H9.586a.334.334,0,0,1,.334.334V5.154a.334.334,0,0,1-.334.334H-.166A.334.334,0,0,1-.5,5.154V-.166A.334.334,0,0,1-.166-.5ZM9.252.169H.169v4.65H9.252Z" transform="translate(20.863 4.994)" fill="#12263f"/>
      <path id="Rectángulo_43650_-_Contorno" data-name="Rectángulo 43650 - Contorno" d="M-.166-.5H5.154a.334.334,0,0,1,.334.334v13.3a.334.334,0,0,1-.334.334H-.166A.334.334,0,0,1-.5,13.132V-.166A.334.334,0,0,1-.166-.5ZM4.819.169H.169V12.8h4.65Z" transform="translate(33.171 28.608)" fill="#12263f"/>
      <path id="Rectángulo_43657_-_Contorno" data-name="Rectángulo 43657 - Contorno" d="M-.166-.5H5.154a.334.334,0,0,1,.334.334V5.154a.334.334,0,0,1-.334.334H-.166A.334.334,0,0,1-.5,5.154V-.166A.334.334,0,0,1-.166-.5ZM4.819.169H.169v4.65h4.65Z" transform="translate(33.171 21.668)" fill="#12263f"/>
      <path id="Rectángulo_43658_-_Contorno" data-name="Rectángulo 43658 - Contorno" d="M-.166-.5H5.154a.334.334,0,0,1,.334.334V3.381a.334.334,0,0,1-.334.334H-.166A.334.334,0,0,1-.5,3.381V-.166A.334.334,0,0,1-.166-.5ZM4.819.169H.169V3.046h4.65Z" transform="translate(33.171 16.409)" fill="#12263f"/>
      <path id="Rectángulo_43659_-_Contorno" data-name="Rectángulo 43659 - Contorno" d="M-.166-.5H5.154a.334.334,0,0,1,.334.334V4.267a.334.334,0,0,1-.334.334H-.166A.334.334,0,0,1-.5,4.267V-.166A.334.334,0,0,1-.166-.5ZM4.819.169H.169V3.933h4.65Z" transform="translate(33.171 10.312)" fill="#12263f"/>
      <path id="Rectángulo_43660_-_Contorno" data-name="Rectángulo 43660 - Contorno" d="M-.166-.5H5.154a.334.334,0,0,1,.334.334V3.381a.334.334,0,0,1-.334.334H-.166A.334.334,0,0,1-.5,3.381V-.166A.334.334,0,0,1-.166-.5ZM4.819.169H.169V3.046h4.65Z" transform="translate(33.171 4.994)" fill="#12263f"/>
      <path id="Rectángulo_43651_-_Contorno" data-name="Rectángulo 43651 - Contorno" d="M-.166-.5H7.813a.334.334,0,0,1,.334.334V5.154a.334.334,0,0,1-.334.334H-.166A.334.334,0,0,1-.5,5.154V-.166A.334.334,0,0,1-.166-.5ZM7.479.169H.169v4.65h7.31Z" transform="translate(41.045 36.587)" fill="#12263f"/>
      <path id="Rectángulo_43661_-_Contorno" data-name="Rectángulo 43661 - Contorno" d="M-.166-.5H7.813a.334.334,0,0,1,.334.334V6.04a.334.334,0,0,1-.334.334H-.166A.334.334,0,0,1-.5,6.04V-.166A.334.334,0,0,1-.166-.5ZM7.479.169H.169V5.706h7.31Z" transform="translate(41.045 27.804)" fill="#12263f"/>
      <path id="Rectángulo_43662_-_Contorno" data-name="Rectángulo 43662 - Contorno" d="M-.166-.5H7.813a.334.334,0,0,1,.334.334V9.586a.334.334,0,0,1-.334.334H-.166A.334.334,0,0,1-.5,9.586V-.166A.334.334,0,0,1-.166-.5ZM7.479.169H.169V9.252h7.31Z" transform="translate(41.045 16.384)" fill="#12263f"/>
      <path id="Rectángulo_43663_-_Contorno" data-name="Rectángulo 43663 - Contorno" d="M-.166-.5H7.813a.334.334,0,0,1,.334.334V3.381a.334.334,0,0,1-.334.334H-.166A.334.334,0,0,1-.5,3.381V-.166A.334.334,0,0,1-.166-.5ZM7.479.169H.169V3.046h7.31Z" transform="translate(41.045 11.14)" fill="#12263f"/>
      <path id="Rectángulo_43664_-_Contorno" data-name="Rectángulo 43664 - Contorno" d="M-.166-.5H7.813a.334.334,0,0,1,.334.334V4.267a.334.334,0,0,1-.334.334H-.166A.334.334,0,0,1-.5,4.267V-.166A.334.334,0,0,1-.166-.5ZM7.479.169H.169V3.933h7.31Z" transform="translate(41.045 4.994)" fill="#12263f"/>
      <path id="Rectángulo_43645_-_Contorno" data-name="Rectángulo 43645 - Contorno" d="M-.166-.5H6.04a.334.334,0,0,1,.334.334V5.154a.334.334,0,0,1-.334.334H-.166A.334.334,0,0,1-.5,5.154V-.166A.334.334,0,0,1-.166-.5ZM5.706.169H.169v4.65H5.706Z" transform="translate(12.165 21.668)" fill="#12263f"/>
      <path id="Rectángulo_43646_-_Contorno" data-name="Rectángulo 43646 - Contorno" d="M-.166-.5H6.04a.334.334,0,0,1,.334.334v2.66a.334.334,0,0,1-.334.334H-.166A.334.334,0,0,1-.5,2.494V-.166A.334.334,0,0,1-.166-.5ZM5.706.169H.169V2.16H5.706Z" transform="translate(12.165 17.29)" fill="#12263f"/>
      <path id="Rectángulo_43647_-_Contorno" data-name="Rectángulo 43647 - Contorno" d="M-.166-.5H6.04a.334.334,0,0,1,.334.334V6.04a.334.334,0,0,1-.334.334H-.166A.334.334,0,0,1-.5,6.04V-.166A.334.334,0,0,1-.166-.5ZM5.706.169H.169V5.706H5.706Z" transform="translate(12.165 9.426)" fill="#12263f"/>
      <path id="Rectángulo_43648_-_Contorno" data-name="Rectángulo 43648 - Contorno" d="M-.166-.5H6.04a.334.334,0,0,1,.334.334v2.66a.334.334,0,0,1-.334.334H-.166A.334.334,0,0,1-.5,2.494V-.166A.334.334,0,0,1-.166-.5ZM5.706.169H.169V2.16H5.706Z" transform="translate(12.165 4.994)" fill="#12263f"/>
      <path id="Rectángulo_43641_-_Contorno" data-name="Rectángulo 43641 - Contorno" d="M-.166-.5H3.381a.334.334,0,0,1,.334.334V6.927a.334.334,0,0,1-.334.334H-.166A.334.334,0,0,1-.5,6.927V-.166A.334.334,0,0,1-.166-.5ZM3.046.169H.169V6.592H3.046Z" transform="translate(5.96 22.535)" fill="#12263f"/>
      <path id="Rectángulo_43642_-_Contorno" data-name="Rectángulo 43642 - Contorno" d="M-.166-.5H3.381a.334.334,0,0,1,.334.334V4.267a.334.334,0,0,1-.334.334H-.166A.334.334,0,0,1-.5,4.267V-.166A.334.334,0,0,1-.166-.5ZM3.046.169H.169V3.933H3.046Z" transform="translate(5.96 16.406)" fill="#12263f"/>
      <path id="Rectángulo_43654_-_Contorno" data-name="Rectángulo 43654 - Contorno" d="M-.166-.5H3.381a.334.334,0,0,1,.334.334V4.267a.334.334,0,0,1-.334.334H-.166A.334.334,0,0,1-.5,4.267V-.166A.334.334,0,0,1-.166-.5ZM3.046.169H.169V3.933H3.046Z" transform="translate(5.96 10.312)" fill="#12263f"/>
      <path id="Rectángulo_43643_-_Contorno" data-name="Rectángulo 43643 - Contorno" d="M-.166-.5H3.381a.334.334,0,0,1,.334.334V3.381a.334.334,0,0,1-.334.334H-.166A.334.334,0,0,1-.5,3.381V-.166A.334.334,0,0,1-.166-.5ZM3.046.169H.169V3.046H3.046Z" transform="translate(5.96 4.994)" fill="#12263f"/>
    </g>
  </g>
</svg>
