<svg xmlns="http://www.w3.org/2000/svg" xmlns:xlink="http://www.w3.org/1999/xlink" width="86" height="85" viewBox="0 0 86 85">
  <defs>
    <filter id="Rect치ngulo_43666" x="0" y="0" width="86" height="85" filterUnits="userSpaceOnUse">
      <feOffset dy="3" input="SourceAlpha"/>
      <feGaussianBlur stdDeviation="3" result="blur"/>
      <feFlood flood-opacity="0.161"/>
      <feComposite operator="in" in2="blur"/>
      <feComposite in="SourceGraphic"/>
    </filter>
  </defs>
  <g id="Grupo_136268" data-name="Grupo 136268" transform="translate(9 6.133)">
    <g id="Grupo_136267" data-name="Grupo 136267" transform="translate(0 0)">
      <g transform="matrix(1, 0, 0, 1, -9, -6.13)" filter="url(#Rect치ngulo_43666)">
        <path id="Rect치ngulo_43666-2" data-name="Rect치ngulo 43666" d="M10,0H58A10,10,0,0,1,68,10V67a0,0,0,0,1,0,0H10A10,10,0,0,1,0,57V10A10,10,0,0,1,10,0Z" transform="translate(9 6)" fill="#b83f8c"/>
      </g>
      <g id="bar-chart" transform="translate(6.681 10.072)">
        <g id="Grupo_136266" data-name="Grupo 136266" transform="translate(0 0)">
          <path id="Trazado_194161" data-name="Trazado 194161" d="M54.869,18h-3.9a.974.974,0,1,0,0,1.948h3.9a.974.974,0,1,0,0-1.948Z" transform="translate(-5.201 -8.261)" fill="#fff"/>
          <path id="Trazado_194162" data-name="Trazado 194162" d="M55.616,8H6.922A2.922,2.922,0,0,0,4,10.922v40.9a2.922,2.922,0,0,0,2.922,2.922H55.616a2.922,2.922,0,0,0,2.922-2.922v-40.9A2.922,2.922,0,0,0,55.616,8Zm.974,43.825a.974.974,0,0,1-.974.974H6.922a.974.974,0,0,1-.974-.974V19.687H45.877a.974.974,0,0,0,0-1.948H5.948V10.922a.974.974,0,0,1,.974-.974H55.616a.974.974,0,0,1,.974.974Z" transform="translate(-4 -8)" fill="#fff"/>
          <path id="Trazado_194163" data-name="Trazado 194163" d="M19.713,12a.974.974,0,0,0-.974.974v1.948a.974.974,0,1,0,1.948,0V12.974A.974.974,0,0,0,19.713,12Zm-4.869,0a.974.974,0,0,0-.974.974v1.948a.974.974,0,0,0,1.948,0V12.974A.974.974,0,0,0,14.843,12ZM9.974,12A.974.974,0,0,0,9,12.974v1.948a.974.974,0,1,0,1.948,0V12.974A.974.974,0,0,0,9.974,12Zm24.347,0a.974.974,0,0,0-.974.974v1.948a.974.974,0,1,0,1.948,0V12.974A.974.974,0,0,0,34.321,12Zm4.869,0a.974.974,0,0,0-.974.974v1.948a.974.974,0,1,0,1.948,0V12.974A.974.974,0,0,0,39.191,12Zm4.869,0a.974.974,0,0,0-.974.974v1.948a.974.974,0,0,0,1.948,0V12.974A.974.974,0,0,0,44.06,12Zm4.869,3.9a.974.974,0,0,0,.974-.974V12.974a.974.974,0,1,0-1.948,0v1.948A.974.974,0,0,0,48.929,15.9ZM53.8,12a.974.974,0,0,0-.974.974v1.948a.974.974,0,0,0,1.948,0V12.974A.974.974,0,0,0,53.8,12ZM24.582,12a.974.974,0,0,0-.974.974v1.948a.974.974,0,1,0,1.948,0V12.974A.974.974,0,0,0,24.582,12Zm4.869,0a.974.974,0,0,0-.974.974v1.948a.974.974,0,1,0,1.948,0V12.974A.974.974,0,0,0,29.452,12Zm18.5,35.06H43.086V30.5a.974.974,0,0,0-.974-.974H37.243V24.661a.974.974,0,0,0-.974-.974H30.426a.974.974,0,0,0-.974.974V39.269h-3.9V36.347a.974.974,0,0,0-.974-.974H18.739a.974.974,0,0,0-.974.974V47.06H12.9a.974.974,0,1,0,0,1.948h35.06a.974.974,0,1,0,0-1.948ZM19.713,37.321h3.9V47.06h-3.9Zm5.843,3.9h3.9V47.06h-3.9Zm5.843-.974V25.634h3.9V47.06H31.4Zm5.843,6.817V31.478h3.9V47.06Z" transform="translate(-4.13 -8.105)" fill="#fff"/>
        </g>
      </g>
    </g>
  </g>
</svg>
