<svg xmlns="http://www.w3.org/2000/svg" xmlns:xlink="http://www.w3.org/1999/xlink" width="86" height="86" viewBox="0 0 86 86">
  <defs>
    <filter id="Rect치ngulo_43665" x="0" y="0" width="86" height="86" filterUnits="userSpaceOnUse">
      <feOffset dy="3" input="SourceAlpha"/>
      <feGaussianBlur stdDeviation="3" result="blur"/>
      <feFlood flood-opacity="0.161"/>
      <feComposite operator="in" in2="blur"/>
      <feComposite in="SourceGraphic"/>
    </filter>
  </defs>
  <g id="Grupo_136269" data-name="Grupo 136269" transform="translate(9.258 5.737)">
    <g transform="matrix(1, 0, 0, 1, -9.26, -5.74)" filter="url(#Rect치ngulo_43665)">
      <path id="Rect치ngulo_43665-2" data-name="Rect치ngulo 43665" d="M10,0H58A10,10,0,0,1,68,10V68a0,0,0,0,1,0,0H10A10,10,0,0,1,0,58V10A10,10,0,0,1,10,0Z" transform="translate(9 6)" fill="#fcca3a"/>
    </g>
    <g id="average-value" transform="translate(7.28 11.313)">
      <path id="Trazado_194131" data-name="Trazado 194131" d="M54.91,8H6.882A2.885,2.885,0,0,0,4,10.882V51.226a2.885,2.885,0,0,0,2.882,2.882H54.91a2.885,2.885,0,0,0,2.882-2.882V10.882A2.885,2.885,0,0,0,54.91,8Zm.961,43.226a.962.962,0,0,1-.961.961H6.882a.962.962,0,0,1-.961-.961V10.882a.962.962,0,0,1,.961-.961H54.91a.962.962,0,0,1,.961.961Z" transform="translate(-4 -8)" fill="#6a37bb"/>
      <path id="Trazado_194132" data-name="Trazado 194132" d="M9.672,43A.672.672,0,0,0,9,43.672v1.345a.672.672,0,0,0,1.345,0V43.672A.672.672,0,0,0,9.672,43Z" transform="translate(-5.638 -8.463)" fill="#6a37bb"/>
      <path id="Trazado_194134" data-name="Trazado 194134" d="M19.486,44.642c-.339,3.681-.486,6.17-.486,6.17v1.227H37.155V50.812S34.976,14,28.077,14c-4.338,0-6.809,14.554-8.047,25.359" transform="translate(-0.567 -9.966)" fill="none" stroke="#6836bf" stroke-linecap="round" stroke-miterlimit="10" stroke-width="2"/>
      <path id="Trazado_194135" data-name="Trazado 194135" d="M55.045,52.383H9V14.036a1.023,1.023,0,1,1,2.046,0V50.31h44a1.036,1.036,0,0,1,0,2.073Z" transform="translate(-5.638 -9.638)" fill="#6a37bb"/>
      <path id="Trazado_194136" data-name="Trazado 194136" d="M26.194,31.69c-.613,0-1.109-.3-1.109-.672V29.672c0-.371.5-.672,1.109-.672s1.109.3,1.109.672v1.345C27.3,31.388,26.807,31.69,26.194,31.69Zm-5.543,0c-.613,0-1.109-.3-1.109-.672V29.672c0-.371.5-.672,1.109-.672s1.109.3,1.109.672v1.345C21.76,31.388,21.264,31.69,20.651,31.69Zm16.628,0c-.613,0-1.109-.3-1.109-.672V29.672c0-.371.5-.672,1.109-.672s1.109.3,1.109.672v1.345C38.388,31.388,37.892,31.69,37.279,31.69Zm-5.543,0c-.613,0-1.109-.3-1.109-.672V29.672c0-.371.5-.672,1.109-.672s1.109.3,1.109.672v1.345C32.845,31.388,32.35,31.69,31.737,31.69Zm11.085,0c-.613,0-1.109-.3-1.109-.672V29.672c0-.371.5-.672,1.109-.672s1.109.3,1.109.672v1.345C43.931,31.388,43.435,31.69,42.822,31.69Zm5.543,0c-.613,0-1.109-.3-1.109-.672V29.672c0-.371.5-.672,1.109-.672s1.109.3,1.109.672v1.345C49.473,31.388,48.978,31.69,48.365,31.69Zm5.543,0c-.613,0-1.109-.3-1.109-.672V29.672c0-.371.5-.672,1.109-.672s1.109.3,1.109.672v1.345C55.016,31.388,54.521,31.69,53.908,31.69Zm-38.8,0c-.613,0-1.109-.3-1.109-.672V29.672c0-.371.5-.672,1.109-.672s1.109.3,1.109.672v1.345C16.217,31.388,15.722,31.69,15.109,31.69Z" transform="translate(-7.276 -8.278)" fill="#6a37bb"/>
    </g>
  </g>
</svg>
